<svg width="50" height="62" viewBox="0 0 50 62" fill="none" xmlns="http://www.w3.org/2000/svg">
<path d="M47 47.5H3V58.5H47V47.5Z" fill="#D8D8D8"/>
<mask id="mask0_59_840" style="mask-type:luminance" maskUnits="userSpaceOnUse" x="3" y="47" width="44" height="12">
<path d="M47 47.5H3V58.5H47V47.5Z" fill="#08F792"/>
</mask>
<g mask="url(#mask0_59_840)">
<path d="M58 -2H-8V64H58V-2Z" fill="#08F792"/>
</g>
<path d="M5.75 44.75H44.25V14.1495L36 6.82022V17.3876H40.0894C41.6082 17.3876 42.8394 18.6188 42.8394 20.1376C42.8394 21.6564 41.6082 22.8876 40.0894 22.8876H33.25C31.7312 22.8876 30.5 21.6564 30.5 20.1376V6.25H5.75V44.75ZM5.75 50.25V55.75H44.25V50.25H5.75ZM5.75 0.75H35.3582C36.7047 0.75 38.0044 1.24395 39.011 2.13826L47.9029 10.0378C49.0777 11.0815 49.75 12.578 49.75 14.1495V55.75C49.75 58.7876 47.2876 61.25 44.25 61.25H5.75C2.71243 61.25 0.25 58.7876 0.25 55.75V6.25C0.25 3.21243 2.71243 0.75 5.75 0.75Z" fill="#7108F6"/>
<mask id="mask1_59_840" style="mask-type:luminance" maskUnits="userSpaceOnUse" x="0" y="0" width="50" height="62">
<path d="M5.75 44.75H44.25V14.1495L36 6.82022V17.3876H40.0894C41.6082 17.3876 42.8394 18.6188 42.8394 20.1376C42.8394 21.6564 41.6082 22.8876 40.0894 22.8876H33.25C31.7312 22.8876 30.5 21.6564 30.5 20.1376V6.25H5.75V44.75ZM5.75 50.25V55.75H44.25V50.25H5.75ZM5.75 0.75H35.3582C36.7047 0.75 38.0044 1.24395 39.011 2.13826L47.9029 10.0378C49.0777 11.0815 49.75 12.578 49.75 14.1495V55.75C49.75 58.7876 47.2876 61.25 44.25 61.25H5.75C2.71243 61.25 0.25 58.7876 0.25 55.75V6.25C0.25 3.21243 2.71243 0.75 5.75 0.75Z" fill="#7600FF"/>
</mask>
<g mask="url(#mask1_59_840)">
<path d="M58 -2H-8V64H58V-2Z" fill="#7108F6"/>
</g>
</svg>
