<svg width="20" height="16" viewBox="0 0 20 16" fill="none" xmlns="http://www.w3.org/2000/svg">
<path d="M6.7395 12.0963L10.008 15.3648L13.2766 12.0963" stroke="#9B9B9B" stroke-linecap="round" stroke-linejoin="round"/>
<path d="M10.0081 8.01056V15.3648" stroke="#9B9B9B" stroke-linecap="round" stroke-linejoin="round"/>
<path d="M17.2647 12.9869C17.9751 12.4874 18.5078 11.7744 18.7856 10.9516C19.0633 10.1287 19.0717 9.23875 18.8094 8.41084C18.5471 7.58292 18.0278 6.86013 17.3268 6.34736C16.6259 5.83458 15.7798 5.5585 14.9113 5.55918H13.8817C13.636 4.60139 13.1761 3.71184 12.5368 2.95749C11.8975 2.20314 11.0954 1.60364 10.1909 1.20414C9.28638 0.804638 8.30302 0.615537 7.31484 0.651074C6.32667 0.68661 5.35943 0.945859 4.48594 1.4093C3.61246 1.87274 2.85549 2.5283 2.27203 3.32663C1.68856 4.12495 1.2938 5.04524 1.11747 6.01821C0.941144 6.99117 0.987835 7.99146 1.25403 8.94377C1.52023 9.89608 1.999 10.7756 2.65429 11.5161" stroke="#9B9B9B" stroke-linecap="round" stroke-linejoin="round"/>
</svg>
