<svg width="16" height="14" viewBox="0 0 16 14" fill="none" xmlns="http://www.w3.org/2000/svg">
<path d="M0.5 10.075C1.22067 10.222 1.88221 10.5776 2.40229 11.0977C2.92237 11.6178 3.27802 12.2793 3.425 13M0.5 7.0375C2.02309 7.2069 3.44321 7.88953 4.52684 8.97316C5.61047 10.0568 6.2931 11.4769 6.4625 13M0.5 4V2.5C0.5 2.10218 0.658035 1.72064 0.93934 1.43934C1.22064 1.15804 1.60218 1 2 1H14C14.3978 1 14.7794 1.15804 15.0607 1.43934C15.342 1.72064 15.5 2.10218 15.5 2.5V11.5C15.5 11.8978 15.342 12.2794 15.0607 12.5607C14.7794 12.842 14.3978 13 14 13H9.5" />
<path d="M0.5 10.075C1.22067 10.222 1.88221 10.5776 2.40229 11.0977C2.92237 11.6178 3.27802 12.2793 3.425 13M0.5 7.0375C2.02309 7.2069 3.44321 7.88953 4.52684 8.97316C5.61047 10.0568 6.2931 11.4769 6.4625 13M0.5 4V2.5C0.5 2.10218 0.658035 1.72064 0.93934 1.43934C1.22064 1.15804 1.60218 1 2 1H14C14.3978 1 14.7794 1.15804 15.0607 1.43934C15.342 1.72064 15.5 2.10218 15.5 2.5V11.5C15.5 11.8978 15.342 12.2794 15.0607 12.5607C14.7794 12.842 14.3978 13 14 13H9.5"  stroke-linecap="round" stroke-linejoin="round"/>
</svg>
