<svg width="20" height="20" viewBox="0 0 20 20" fill="none" xmlns="http://www.w3.org/2000/svg">
<path fill-rule="evenodd" clip-rule="evenodd" d="M4.30304 10C4.30304 9.3649 4.40853 8.75601 4.59679 8.1849L1.30145 5.66846C0.65921 6.97246 0.297363 8.44179 0.297363 10C0.297363 11.5569 0.658765 13.0253 1.30012 14.3285L4.59368 11.8071C4.40719 11.2387 4.30304 10.632 4.30304 10Z" fill="#FBBC05"/>
<path fill-rule="evenodd" clip-rule="evenodd" d="M10.089 4.22223C11.4688 4.22223 12.715 4.71112 13.6941 5.51112L16.5426 2.66667C14.8068 1.15556 12.5815 0.222229 10.089 0.222229C6.21954 0.222229 2.89393 2.43512 1.30145 5.66845L4.59679 8.1849C5.35609 5.88001 7.5205 4.22223 10.089 4.22223Z" fill="#EB4335"/>
<path fill-rule="evenodd" clip-rule="evenodd" d="M10.089 15.7778C7.5205 15.7778 5.35609 14.12 4.59679 11.8151L1.30145 14.3311C2.89393 17.5649 6.21954 19.7778 10.089 19.7778C12.4773 19.7778 14.7574 18.9298 16.4687 17.3409L13.3408 14.9227C12.4582 15.4787 11.3468 15.7778 10.089 15.7778Z" fill="#34A853"/>
<path fill-rule="evenodd" clip-rule="evenodd" d="M19.4356 10C19.4356 9.42223 19.3466 8.80001 19.2131 8.22223H10.0891V12H15.3409C15.0783 13.288 14.3636 14.2782 13.3408 14.9227L16.4688 17.3409C18.2664 15.6725 19.4356 13.1871 19.4356 10Z" fill="#4285F4"/>
</svg>
