<svg width="35" height="43" viewBox="0 0 35 43" fill="none" xmlns="http://www.w3.org/2000/svg">
<path fill-rule="evenodd" clip-rule="evenodd" d="M13.5778 17.83C12.7236 16.9904 11.3386 16.9904 10.4843 17.83C9.63004 18.6696 9.63004 20.031 10.4843 20.8705L14.4062 24.7252L10.4843 28.5799C9.63004 29.4195 9.63004 30.7808 10.4843 31.6204C11.3386 32.46 12.7236 32.46 13.5778 31.6204L17.4997 27.7657L21.4216 31.6204C22.2758 32.46 23.6609 32.46 24.5152 31.6204C25.3694 30.7808 25.3694 29.4195 24.5152 28.5799L20.5932 24.7252L24.5152 20.8705C25.3694 20.031 25.3694 18.6696 24.5152 17.83C23.6609 16.9904 22.2758 16.9904 21.4216 17.83L17.4997 21.6847L13.5778 17.83ZM18.5541 0.00029643C20.0389 -0.00193954 21.3567 -0.00391746 22.5738 0.491587C23.7909 0.987091 24.7214 1.90436 25.7697 2.93791C27.8469 4.98578 29.9274 7.03058 32.0109 9.07217C33.0625 10.1025 33.9959 11.017 34.4998 12.2133C35.0041 13.4095 35.0021 14.7048 34.9997 16.1642C34.9914 21.5734 34.9995 26.9825 34.9995 32.3918C34.9997 34.2978 34.9997 35.9399 34.8199 37.2548C34.6269 38.6641 34.1923 40.0152 33.0773 41.111C31.9626 42.2066 30.588 42.6341 29.1541 42.8235C27.816 43.0002 26.1453 43.0002 24.2061 43H10.7934C8.85421 43.0002 7.18338 43.0002 5.84537 42.8235C4.41147 42.6341 3.03697 42.2066 1.92209 41.111C0.807225 40.0152 0.372487 38.6641 0.179706 37.2548C-0.000191565 35.9399 -0.00010402 34.2978 5.35307e-06 32.3918L2.72574e-05 10.7505C2.72574e-05 10.7031 5.35307e-06 10.6559 5.35307e-06 10.6089C-0.00010402 8.70302 -0.000191565 7.06085 0.179706 5.74578C0.372487 4.33645 0.807223 2.98551 1.92211 1.88976C3.03697 0.79398 4.41147 0.366695 5.84537 0.177218C7.18336 0.000404036 8.85419 0.00049008 10.7934 0.000597578C13.3803 0.000748076 15.9672 0.00420938 18.5541 0.00029643Z" fill="#7108F6"/>
</svg>
