<svg width="26" height="26" viewBox="0 0 26 26" fill="none" xmlns="http://www.w3.org/2000/svg">
<path d="M2.88889 3.61111C2.12271 3.61111 1.38791 3.91548 0.846136 4.45725C0.304364 4.99902 0 5.73382 0 6.5L0 19.5C0 20.2662 0.304364 21.001 0.846136 21.5428C1.38791 22.0845 2.12271 22.3889 2.88889 22.3889H8.66667V3.61111H2.88889Z" fill="#009A49"/>
<path d="M8.66666 3.61111H17.3333V22.3889H8.66666V3.61111Z" fill="#EEEEEE"/>
<path d="M23.1111 3.61111H17.3333V22.3889H23.1111C23.8773 22.3889 24.6121 22.0845 25.1538 21.5428C25.6956 21.001 26 20.2662 26 19.5V6.5C26 5.73382 25.6956 4.99902 25.1538 4.45725C24.6121 3.91548 23.8773 3.61111 23.1111 3.61111Z" fill="#009A49"/>
</svg>
