<svg width="9" height="10" viewBox="0 0 9 10" fill="none" xmlns="http://www.w3.org/2000/svg">
<path d="M8.86554 7.15288L5.02406 5.00034L8.86554 2.84746C8.94621 2.80305 9 2.72034 9 2.62542C9 2.48509 8.88265 2.37119 8.73806 2.37119C8.68846 2.37119 8.64201 2.38475 8.60255 2.4078L8.60359 2.40712L4.76177 4.55966V0.254237C4.76177 0.113898 4.64442 0 4.49983 0C4.35523 0 4.23788 0.113898 4.23788 0.254237V4.55932L0.396407 2.40678C0.357988 2.38407 0.311537 2.37085 0.261943 2.37085C0.11735 2.37085 0 2.48475 0 2.62508C0 2.72 0.0537856 2.80271 0.133067 2.84644L0.134464 2.84712L3.97594 5L0.134464 7.15254C0.0555318 7.19729 0.00349257 7.27932 0.00349257 7.37288C0.00349257 7.51356 0.120843 7.62746 0.265785 7.62746C0.313982 7.62712 0.359036 7.61492 0.398153 7.59288L0.396756 7.59356L4.23823 5.44068V9.74576C4.23823 9.8861 4.35558 10 4.50017 10C4.64477 10 4.76212 9.8861 4.76212 9.74576V5.44034L8.60394 7.59322C8.64131 7.61458 8.68672 7.62712 8.73456 7.62712C8.83131 7.62712 8.91548 7.57661 8.96123 7.50136L8.96193 7.5C8.98393 7.46339 8.99686 7.41966 8.99686 7.37288C8.99686 7.27898 8.94447 7.19729 8.86693 7.15322L8.86554 7.15288Z" fill="#FF012F"/>
</svg>
