<svg width="62" height="62" viewBox="0 0 62 62" fill="none" xmlns="http://www.w3.org/2000/svg">
<g clip-path="url(#clip0_946_5325)">
<path d="M11.625 2.90625C11.625 2.37053 12.058 1.9375 12.5938 1.9375H49.4062C49.942 1.9375 50.375 2.37053 50.375 2.90625V11.625H11.625V2.90625Z" fill="#F9EBB2"/>
<path d="M50.375 59.0938C50.375 59.6295 49.942 60.0625 49.4062 60.0625H12.5938C12.058 60.0625 11.625 59.6295 11.625 59.0938V35.8438C11.625 35.308 12.058 34.875 12.5938 34.875H49.4062C49.942 34.875 50.375 35.308 50.375 35.8438V59.0938Z" fill="#F9EBB2"/>
<path d="M60.0625 46.5C60.0625 47.5695 59.1945 48.4375 58.125 48.4375H52.3125V34.875C52.3125 33.8045 51.4455 32.9375 50.375 32.9375H11.625C10.5545 32.9375 9.6875 33.8045 9.6875 34.875V48.4375H3.875C2.8055 48.4375 1.9375 47.5695 1.9375 46.5V15.5C1.9375 14.4305 2.8055 13.5625 3.875 13.5625H58.125C59.1945 13.5625 60.0625 14.4305 60.0625 15.5V46.5Z" fill="#45AAB8"/>
<path d="M58.125 11.625H52.3125V1.9375C52.3125 0.867031 51.4455 0 50.375 0H11.625C10.5545 0 9.6875 0.867031 9.6875 1.9375V11.625H3.875C1.73309 11.625 0 13.3581 0 15.5V46.5C0 48.6419 1.73309 50.375 3.875 50.375H9.6875V60.0625C9.6875 61.133 10.5545 62 11.625 62H50.375C51.4455 62 52.3125 61.133 52.3125 60.0625V50.375H58.125C60.2669 50.375 62 48.6419 62 46.5V15.5C62 13.3581 60.2669 11.625 58.125 11.625ZM11.625 2.90625C11.625 2.37053 12.058 1.9375 12.5938 1.9375H49.4062C49.942 1.9375 50.375 2.37053 50.375 2.90625V11.625H11.625V2.90625ZM50.375 59.0938C50.375 59.6295 49.942 60.0625 49.4062 60.0625H12.5938C12.058 60.0625 11.625 59.6295 11.625 59.0938V35.8438C11.625 35.308 12.058 34.875 12.5938 34.875H49.4062C49.942 34.875 50.375 35.308 50.375 35.8438V59.0938ZM60.0625 46.5C60.0625 47.5695 59.1945 48.4375 58.125 48.4375H52.3125V34.875C52.3125 33.8045 51.4455 32.9375 50.375 32.9375H11.625C10.5545 32.9375 9.6875 33.8045 9.6875 34.875V48.4375H3.875C2.8055 48.4375 1.9375 47.5695 1.9375 46.5V15.5C1.9375 14.4305 2.8055 13.5625 3.875 13.5625H58.125C59.1945 13.5625 60.0625 14.4305 60.0625 15.5V46.5Z" fill="#394240"/>
<path d="M18.4062 42.625H30.0312C30.567 42.625 31 42.192 31 41.6562C31 41.1205 30.567 40.6875 30.0312 40.6875H18.4062C17.8705 40.6875 17.4375 41.1205 17.4375 41.6562C17.4375 42.192 17.8705 42.625 18.4062 42.625Z" fill="#394240"/>
<path d="M43.5938 46.5H18.4062C17.8705 46.5 17.4375 46.933 17.4375 47.4688C17.4375 48.0045 17.8705 48.4375 18.4062 48.4375H43.5938C44.1295 48.4375 44.5625 48.0045 44.5625 47.4688C44.5625 46.933 44.1295 46.5 43.5938 46.5Z" fill="#394240"/>
<path d="M36.8125 52.3125H18.4062C17.8705 52.3125 17.4375 52.7455 17.4375 53.2812C17.4375 53.817 17.8705 54.25 18.4062 54.25H36.8125C37.3482 54.25 37.7812 53.817 37.7812 53.2812C37.7812 52.7455 37.3482 52.3125 36.8125 52.3125Z" fill="#394240"/>
<path d="M53.2812 17.4375C51.676 17.4375 50.375 18.7385 50.375 20.3438C50.375 21.949 51.676 23.25 53.2812 23.25C54.8865 23.25 56.1875 21.949 56.1875 20.3438C56.1875 18.7385 54.8865 17.4375 53.2812 17.4375ZM53.2812 21.3125C52.7455 21.3125 52.3125 20.8795 52.3125 20.3438C52.3125 19.808 52.7455 19.375 53.2812 19.375C53.817 19.375 54.25 19.808 54.25 20.3438C54.25 20.8795 53.817 21.3125 53.2812 21.3125Z" fill="#394240"/>
<path d="M43.5938 17.4375C41.9885 17.4375 40.6875 18.7385 40.6875 20.3438C40.6875 21.949 41.9885 23.25 43.5938 23.25C45.199 23.25 46.5 21.949 46.5 20.3438C46.5 18.7385 45.199 17.4375 43.5938 17.4375ZM43.5938 21.3125C43.058 21.3125 42.625 20.8795 42.625 20.3438C42.625 19.808 43.058 19.375 43.5938 19.375C44.1295 19.375 44.5625 19.808 44.5625 20.3438C44.5625 20.8795 44.1295 21.3125 43.5938 21.3125Z" fill="#394240"/>
<path d="M43.5938 21.3125C44.1288 21.3125 44.5625 20.8788 44.5625 20.3438C44.5625 19.8087 44.1288 19.375 43.5938 19.375C43.0587 19.375 42.625 19.8087 42.625 20.3438C42.625 20.8788 43.0587 21.3125 43.5938 21.3125Z" fill="#B4CCB9"/>
<path d="M53.2812 21.3125C53.8163 21.3125 54.25 20.8788 54.25 20.3438C54.25 19.8087 53.8163 19.375 53.2812 19.375C52.7462 19.375 52.3125 19.8087 52.3125 20.3438C52.3125 20.8788 52.7462 21.3125 53.2812 21.3125Z" fill="#F76D57"/>
</g>
<defs>
<clipPath id="clip0_946_5325">
<rect width="62" height="62" fill="white"/>
</clipPath>
</defs>
</svg>
