<svg width="54" height="54" viewBox="0 0 54 54" fill="none" xmlns="http://www.w3.org/2000/svg">
<path d="M51.4688 24.4688H41.3438C39.9457 24.4688 38.8125 25.6027 38.8125 27C38.8125 28.3972 39.9457 29.5312 41.3438 29.5312H51.4688C52.8668 29.5312 54 28.3972 54 27C54 25.6027 52.8668 24.4688 51.4688 24.4688ZM51.4688 27.8438H41.3438C40.8772 27.8438 40.5 27.4666 40.5 27C40.5 26.5334 40.8772 26.1562 41.3438 26.1562H51.4688C51.9353 26.1562 52.3125 26.5334 52.3125 27C52.3125 27.4666 51.9353 27.8438 51.4688 27.8438Z" fill="#394240"/>
<path d="M50.0444 37.6059L40.5311 34.1432C39.2157 33.6656 37.7644 34.3423 37.286 35.656C36.8085 36.9681 37.4843 38.421 38.7989 38.8994L48.313 42.363C49.6276 42.8406 51.0788 42.1622 51.5572 40.8502C52.0356 39.5373 51.3589 38.0843 50.0444 37.6059ZM49.9727 40.2739C49.8132 40.7126 49.3289 40.9362 48.8918 40.7784L39.3768 37.3148C38.9381 37.1554 38.7137 36.6719 38.8723 36.234C39.0317 35.7953 39.5161 35.57 39.954 35.7294L49.4681 39.1922C49.906 39.3517 50.1321 39.836 49.9727 40.2739Z" fill="#394240"/>
<path d="M40.5306 19.8543L50.0447 16.3915C51.3584 15.914 52.0351 14.4602 51.5576 13.1482C51.08 11.8344 49.6271 11.1561 48.3125 11.6336L38.7992 15.0972C37.4838 15.5748 36.808 17.0286 37.2855 18.3423C37.7639 19.6552 39.2169 20.3327 40.5306 19.8543ZM39.3763 16.6835L48.8905 13.2199C49.3284 13.0613 49.8127 13.2874 49.9713 13.7261C50.1308 14.1649 49.9055 14.6475 49.4676 14.807L39.9526 18.2697C39.5139 18.4292 39.0304 18.2039 38.8718 17.7652C38.7123 17.3264 38.9376 16.8438 39.3763 16.6835Z" fill="#394240"/>
<path d="M31.6668 0.25923C30.4079 -0.268114 28.9575 0.025511 27.9889 0.990761L15.9123 13.0665C15.9123 13.0665 15.5562 13.5002 14.7656 13.5002C13.7472 13.5002 3.375 13.5019 3.375 13.5019C1.50947 13.5019 0 15.0114 0 16.8769V37.1252C0 38.9907 1.50947 40.5002 3.375 40.5002C3.375 40.5002 14.0805 40.5002 14.634 40.5002C15.1875 40.5002 15.568 40.5905 16.0439 41.0655C16.5189 41.5414 27.9889 53.0113 27.9889 53.0113C28.6352 53.6576 29.4983 54.0002 30.375 54.0002C30.8104 54.0002 31.2483 53.9175 31.6668 53.7429C32.929 53.2223 33.75 51.9895 33.75 50.6252V3.37689C33.75 2.01254 32.929 0.779824 31.6668 0.25923ZM5.0625 38.8127H3.375C2.4435 38.8127 1.6875 38.0567 1.6875 37.1252V16.8752C1.6875 15.9429 2.4435 15.1877 3.375 15.1877H5.0625V38.8127ZM10.125 38.8127H6.75V15.1877H10.125V38.8127ZM32.0625 50.6252C32.0625 52.3127 30.2164 52.9978 28.6875 51.4689C27.7518 50.5332 16.875 39.6564 16.875 39.6564C16.2422 39.0236 15.6625 38.8127 14.7665 38.8127H11.8125V15.1877H14.7665C15.6625 15.1877 16.0312 15.1877 16.875 14.3439C16.875 14.3439 27.6463 3.57264 28.6875 2.53145C30.1902 1.02789 32.0625 1.71301 32.0625 3.3752C32.0625 4.27126 32.0625 49.7291 32.0625 50.6252Z" fill="#394240"/>
<path d="M10.125 15.1875H6.75V38.8125H10.125V15.1875Z" fill="#45AAB8"/>
<path d="M1.6875 16.875V37.125C1.6875 38.0565 2.4435 38.8125 3.375 38.8125H5.0625V15.1875H3.375C2.4435 15.1875 1.6875 15.9427 1.6875 16.875Z" fill="#F76D57"/>
<path d="M28.6875 2.53125C27.6463 3.57159 16.875 14.3438 16.875 14.3438C16.0312 15.1875 15.6625 15.1875 14.7665 15.1875H11.8125V38.8125H14.7665C15.6625 38.8125 16.2422 39.0234 16.875 39.6562C16.875 39.6562 27.7518 50.533 28.6875 51.4688C30.2164 52.9976 32.0625 52.3125 32.0625 50.625C32.0625 49.7289 32.0625 4.27106 32.0625 3.375C32.0625 1.71366 30.1902 1.02769 28.6875 2.53125Z" fill="#F76D57"/>
<path d="M39.9533 18.2689L49.4683 14.8061C49.9062 14.6467 50.1315 14.1632 49.972 13.7253C49.8134 13.2865 49.3283 13.0613 48.8912 13.219L39.3771 16.6826C38.9383 16.8421 38.713 17.3256 38.8725 17.7635C39.0311 18.2031 39.5146 18.4292 39.9533 18.2689Z" fill="#B4CCB9"/>
<path d="M51.4688 26.1562H41.3438C40.8772 26.1562 40.5 26.5334 40.5 27C40.5 27.4666 40.8772 27.8438 41.3438 27.8438H51.4688C51.9353 27.8438 52.3125 27.4666 52.3125 27C52.3125 26.5334 51.9353 26.1562 51.4688 26.1562Z" fill="#B4CCB9"/>
<path d="M49.4685 39.1913L39.9543 35.7286C39.5156 35.5691 39.0321 35.7944 38.8727 36.2332C38.714 36.6719 38.9385 37.1545 39.3772 37.314L48.8922 40.7776C49.3301 40.9362 49.8136 40.7118 49.973 40.273C50.1325 39.8343 49.9064 39.3517 49.4685 39.1913Z" fill="#B4CCB9"/>
<path opacity="0.2" d="M1.6875 16.875V37.125C1.6875 38.0565 2.4435 38.8125 3.375 38.8125H5.0625V15.1875H3.375C2.4435 15.1875 1.6875 15.9427 1.6875 16.875Z" fill="black"/>
</svg>
