<svg width="30" height="30" viewBox="0 0 30 30" fill="none" xmlns="http://www.w3.org/2000/svg">
<path d="M14.9997 0C6.71612 0 0 6.71588 0 14.9997C0 23.2836 6.71612 29.9995 14.9997 29.9995C23.2841 29.9995 30 23.2836 30 14.9997C30 6.71588 23.2841 0 14.9997 0ZM14.9997 28.6667C7.46411 28.6667 1.33283 22.5357 1.33283 14.9997C1.33283 7.46387 7.46411 1.33283 14.9997 1.33283C22.5357 1.33283 28.6667 7.46387 28.6667 14.9997C28.6667 22.5356 22.5361 28.6667 14.9997 28.6667Z" fill="#7108F6"/>
<path d="M19.4277 4.21151V15.538L20.2852 14.6807C20.7079 14.2578 21.3916 14.2578 21.8138 14.6807C22.236 15.1031 22.236 15.7873 21.8138 16.209L19.1117 18.9111L19.1107 18.9126L18.3467 19.6761L17.5836 18.9126L17.5817 18.9111L15.0597 16.3891C14.6373 15.9664 14.6373 15.2825 15.0597 14.8605C15.4819 14.4384 16.1661 14.4384 16.5883 14.8605L17.2657 15.5374V3.77782C17.2657 3.70337 17.274 3.63176 17.2876 3.56089C16.5474 3.41313 15.7829 3.33301 14.9999 3.33301C8.5669 3.33301 3.33301 8.5669 3.33301 14.9999C3.33301 19.6236 6.04467 23.6166 9.95492 25.5032V14.4732L9.09791 15.3305C8.88706 15.5418 8.6102 15.6475 8.33334 15.6475C8.05673 15.6475 7.78043 15.5418 7.5691 15.3305C7.14667 14.9081 7.14667 14.2239 7.5691 13.8022L10.2712 11.0997C10.2717 11.0993 10.2717 11.0993 10.2717 11.0993L11.0362 10.335L11.8 11.0983C11.8 11.0983 11.8005 11.0993 11.8015 11.0997L14.3237 13.622C14.7461 14.0444 14.7461 14.7286 14.3237 15.1503C13.9013 15.573 13.2171 15.573 12.7949 15.1503L12.1177 14.4736V26.2335C12.1177 26.253 12.1131 26.2715 12.1121 26.291C13.0376 26.5281 14.0021 26.667 15.0003 26.667C21.4335 26.667 26.6683 21.4331 26.6683 15.0003C26.6674 10.1346 23.6706 5.95944 19.4277 4.21151Z" fill="#7108F6"/>
</svg>
