<svg width="63" height="87" viewBox="0 0 63 87" fill="none" xmlns="http://www.w3.org/2000/svg">
<path d="M31.333 35.2498C29.1699 35.2498 27.4164 33.4963 27.4164 31.3332C27.4164 29.17 29.1699 27.4165 31.333 27.4165C33.4961 27.4165 35.2497 29.17 35.2497 31.3332C35.2497 33.4963 33.4961 35.2498 31.333 35.2498ZM19.6777 58.0622H41.947V79.774L30.8124 68.6394L19.6777 79.774V58.0622Z" fill="#D8D8D8"/>
<mask id="mask0_148_4108" style="mask-type:luminance" maskUnits="userSpaceOnUse" x="19" y="27" width="23" height="53">
<path d="M31.332 35.2498C29.1689 35.2498 27.4154 33.4963 27.4154 31.3332C27.4154 29.17 29.1689 27.4165 31.332 27.4165C33.4952 27.4165 35.2487 29.17 35.2487 31.3332C35.2487 33.4963 33.4952 35.2498 31.332 35.2498ZM19.6768 58.0622H41.946V79.774L30.8114 68.6394L19.6768 79.774V58.0622Z" fill="#FFA0A0"/>
</mask>
<g mask="url(#mask0_148_4108)">
<path d="M78.3326 -3.91675H-15.667V90.0829H78.3326V-3.91675Z" fill="#FFA0A0"/>
</g>
<path d="M23.4999 61.6793V72.5378L28.5133 67.3378C30.0536 65.7402 32.6128 65.7402 34.1531 67.3378L39.1665 72.5378V61.6793C36.6628 62.3237 34.038 62.6664 31.3332 62.6664C28.6284 62.6664 26.0036 62.3237 23.4999 61.6793ZM15.6757 58.4799C6.30517 53.0635 0 42.9347 0 31.3332C0 14.0284 14.0284 0 31.3332 0C48.6381 0 62.6664 14.0284 62.6664 31.3332C62.6664 42.9347 56.3612 53.0635 46.9907 58.4799C46.9967 58.5688 46.9998 58.6585 46.9998 58.7489V82.2427C46.9998 85.7661 42.709 87.497 40.2632 84.9602L31.3332 75.6978L22.4032 84.9602C19.9574 87.497 15.6666 85.7661 15.6666 82.2427V58.7489C15.6666 58.6585 15.6697 58.5688 15.6757 58.4799ZM31.3332 54.8331C44.3118 54.8331 54.8331 44.3119 54.8331 31.3332C54.8331 18.3546 44.3118 7.8333 31.3332 7.8333C18.3546 7.8333 7.8333 18.3546 7.8333 31.3332C7.8333 44.3119 18.3546 54.8331 31.3332 54.8331ZM31.3332 46.9998C22.6808 46.9998 15.6666 39.9856 15.6666 31.3332C15.6666 22.6808 22.6808 15.6666 31.3332 15.6666C39.9856 15.6666 46.9998 22.6808 46.9998 31.3332C46.9998 39.9856 39.9856 46.9998 31.3332 46.9998ZM31.3332 39.1665C35.6594 39.1665 39.1665 35.6594 39.1665 31.3332C39.1665 27.007 35.6594 23.4999 31.3332 23.4999C27.007 23.4999 23.4999 27.007 23.4999 31.3332C23.4999 35.6594 27.007 39.1665 31.3332 39.1665Z" fill="#7600FF"/>
<mask id="mask1_148_4108" style="mask-type:luminance" maskUnits="userSpaceOnUse" x="0" y="0" width="63" height="87">
<path d="M23.4999 61.6793V72.5378L28.5133 67.3378C30.0536 65.7402 32.6128 65.7402 34.1531 67.3378L39.1665 72.5378V61.6793C36.6628 62.3237 34.038 62.6664 31.3332 62.6664C28.6284 62.6664 26.0036 62.3237 23.4999 61.6793ZM15.6757 58.4799C6.30517 53.0635 0 42.9347 0 31.3332C0 14.0284 14.0284 0 31.3332 0C48.6381 0 62.6664 14.0284 62.6664 31.3332C62.6664 42.9347 56.3612 53.0635 46.9907 58.4799C46.9967 58.5688 46.9998 58.6585 46.9998 58.7489V82.2427C46.9998 85.7661 42.709 87.497 40.2632 84.9602L31.3332 75.6978L22.4032 84.9602C19.9574 87.497 15.6666 85.7661 15.6666 82.2427V58.7489C15.6666 58.6585 15.6697 58.5688 15.6757 58.4799ZM31.3332 54.8331C44.3118 54.8331 54.8331 44.3119 54.8331 31.3332C54.8331 18.3546 44.3118 7.8333 31.3332 7.8333C18.3546 7.8333 7.8333 18.3546 7.8333 31.3332C7.8333 44.3119 18.3546 54.8331 31.3332 54.8331ZM31.3332 46.9998C22.6808 46.9998 15.6666 39.9856 15.6666 31.3332C15.6666 22.6808 22.6808 15.6666 31.3332 15.6666C39.9856 15.6666 46.9998 22.6808 46.9998 31.3332C46.9998 39.9856 39.9856 46.9998 31.3332 46.9998ZM31.3332 39.1665C35.6594 39.1665 39.1665 35.6594 39.1665 31.3332C39.1665 27.007 35.6594 23.4999 31.3332 23.4999C27.007 23.4999 23.4999 27.007 23.4999 31.3332C23.4999 35.6594 27.007 39.1665 31.3332 39.1665Z" fill="#FFA0A0"/>
</mask>
<g mask="url(#mask1_148_4108)">
<path d="M78.3336 -3.9165H-15.666V90.0831H78.3336V-3.9165Z" fill="#7108F6"/>
</g>
</svg>
