<svg width="37" height="30" viewBox="0 0 37 30" fill="none" xmlns="http://www.w3.org/2000/svg">
<path d="M35.9998 25.9339C35.9998 26.7711 35.6672 27.5741 35.0751 28.1661C34.4831 28.7581 33.6802 29.0907 32.8429 29.0907H4.43126C3.59401 29.0907 2.79106 28.7581 2.19903 28.1661C1.60701 27.5741 1.27441 26.7711 1.27441 25.9339V8.5712C1.27441 7.73395 1.60701 6.93099 2.19903 6.33897C2.79106 5.74695 3.59401 5.41435 4.43126 5.41435H10.745L13.9018 0.679077H23.3724L26.5292 5.41435H32.8429C33.6802 5.41435 34.4831 5.74695 35.0751 6.33897C35.6672 6.93099 35.9998 7.73395 35.9998 8.5712V25.9339Z" fill="black" stroke="#F9F9F9" stroke-linecap="round" stroke-linejoin="round"/>
<path d="M18.6369 22.777C22.1239 22.777 24.9506 19.9503 24.9506 16.4633C24.9506 12.9763 22.1239 10.1496 18.6369 10.1496C15.15 10.1496 12.3232 12.9763 12.3232 16.4633C12.3232 19.9503 15.15 22.777 18.6369 22.777Z" fill="black" stroke="#F9F9F9" stroke-linecap="round" stroke-linejoin="round"/>
</svg>
