<svg width="21" height="755" viewBox="0 0 21 755" fill="none" xmlns="http://www.w3.org/2000/svg">
<path d="M9.96 112.454C9.35333 112.454 8.76067 112.351 8.182 112.146C7.594 111.931 7.062 111.623 6.586 111.222C6.10067 110.811 5.718 110.312 5.438 109.724C5.14867 109.136 5.004 108.469 5.004 107.722C5.004 106.835 5.20933 106.075 5.62 105.44C6.02133 104.805 6.53933 104.334 7.174 104.026L7.818 105.02C7.398 105.216 7.06667 105.468 6.824 105.776C6.572 106.075 6.39467 106.401 6.292 106.756C6.18933 107.101 6.138 107.442 6.138 107.778C6.138 108.329 6.25 108.819 6.474 109.248C6.698 109.668 6.99667 110.023 7.37 110.312C7.74333 110.601 8.16333 110.821 8.63 110.97C9.08733 111.11 9.54933 111.18 10.016 111.18C10.5293 111.18 11.024 111.096 11.5 110.928C11.976 110.751 12.396 110.508 12.76 110.2C13.124 109.892 13.4133 109.528 13.628 109.108C13.8427 108.688 13.95 108.231 13.95 107.736C13.95 107.391 13.8893 107.036 13.768 106.672C13.6467 106.308 13.46 105.967 13.208 105.65C12.9467 105.333 12.6107 105.081 12.2 104.894L12.774 103.844C13.2687 104.049 13.6887 104.367 14.034 104.796C14.3793 105.225 14.6407 105.706 14.818 106.238C14.9953 106.761 15.084 107.279 15.084 107.792C15.084 108.473 14.9393 109.099 14.65 109.668C14.3513 110.237 13.9593 110.732 13.474 111.152C12.9793 111.563 12.4287 111.885 11.822 112.118C11.206 112.342 10.5853 112.454 9.96 112.454ZM15 96.121V97.353H10.912C10.1653 97.353 9.60533 97.4884 9.232 97.759C8.85867 98.0204 8.672 98.3984 8.672 98.893C8.672 99.2104 8.756 99.5324 8.924 99.859C9.092 100.176 9.32067 100.456 9.61 100.699C9.89 100.942 10.2167 101.119 10.59 101.231H15V102.463H4.78V101.231H9.26C8.73733 100.942 8.32667 100.55 8.028 100.055C7.72 99.551 7.566 99.0097 7.566 98.431C7.566 97.9924 7.64533 97.6284 7.804 97.339C7.95333 97.0404 8.168 96.8024 8.448 96.625C8.728 96.4477 9.05467 96.3217 9.428 96.247C9.792 96.163 10.1933 96.121 10.632 96.121H15ZM12.886 94.7792C12.4193 94.7792 12.018 94.6486 11.682 94.3872C11.3367 94.1166 11.0707 93.7479 10.884 93.2812C10.6973 92.8146 10.604 92.2732 10.604 91.6572C10.604 91.3306 10.632 90.9852 10.688 90.6212C10.7347 90.2572 10.8093 89.9352 10.912 89.6552H10.38C9.82 89.6552 9.38133 89.8232 9.064 90.1592C8.73733 90.4952 8.574 90.9712 8.574 91.5872C8.574 91.9886 8.64867 92.3759 8.798 92.7492C8.938 93.1132 9.14333 93.5006 9.414 93.9112L8.546 94.3592C8.21933 93.8832 7.97667 93.4072 7.818 92.9312C7.65 92.4552 7.566 91.9606 7.566 91.4472C7.566 90.5139 7.82733 89.7766 8.35 89.2352C8.86333 88.6939 9.582 88.4232 10.506 88.4232H13.6C13.7493 88.4232 13.8613 88.3952 13.936 88.3392C14.0013 88.2739 14.0387 88.1712 14.048 88.0312H15C15.0187 88.1526 15.0327 88.2599 15.042 88.3532C15.0513 88.4372 15.056 88.5072 15.056 88.5632C15.056 88.8526 14.9767 89.0719 14.818 89.2212C14.6593 89.3612 14.4913 89.4406 14.314 89.4592L13.852 89.4872C14.2627 89.8046 14.58 90.2199 14.804 90.7332C15.028 91.2466 15.14 91.7552 15.14 92.2592C15.14 92.7446 15.042 93.1786 14.846 93.5612C14.6407 93.9439 14.37 94.2426 14.034 94.4572C13.6887 94.6719 13.306 94.7792 12.886 94.7792ZM13.404 90.0192C13.2733 89.9072 13.1427 89.8186 13.012 89.7532C12.872 89.6879 12.7553 89.6552 12.662 89.6552H11.752C11.64 89.9446 11.556 90.2479 11.5 90.5652C11.4347 90.8826 11.402 91.1952 11.402 91.5032C11.402 92.1286 11.528 92.6372 11.78 93.0292C12.0227 93.4119 12.3587 93.6032 12.788 93.6032C13.0213 93.6032 13.25 93.5426 13.474 93.4212C13.6887 93.2906 13.866 93.1039 14.006 92.8612C14.146 92.6092 14.216 92.3012 14.216 91.9372C14.216 91.5546 14.1413 91.1906 13.992 90.8452C13.8333 90.4999 13.6373 90.2246 13.404 90.0192ZM15 80.1113V81.3433H10.912C10.1373 81.3433 9.57267 81.4646 9.218 81.7073C8.854 81.9406 8.672 82.2999 8.672 82.7853C8.672 83.1213 8.756 83.4573 8.924 83.7933C9.092 84.1199 9.32067 84.4139 9.61 84.6753C9.89 84.9273 10.2167 85.1093 10.59 85.2213H15V86.4533H7.692V85.3333H9.26C8.91467 85.1373 8.616 84.8853 8.364 84.5773C8.112 84.2693 7.916 83.9193 7.776 83.5273C7.636 83.1353 7.566 82.7246 7.566 82.2953C7.566 81.8753 7.64533 81.5253 7.804 81.2453C7.95333 80.9559 8.168 80.7319 8.448 80.5733C8.71867 80.4053 9.04067 80.2886 9.414 80.2233C9.78733 80.1486 10.1933 80.1113 10.632 80.1113H15ZM15.084 75.2835C15.084 75.7781 14.986 76.2355 14.79 76.6555C14.5847 77.0661 14.3093 77.4208 13.964 77.7195C13.6093 78.0181 13.208 78.2515 12.76 78.4195C12.312 78.5781 11.8453 78.6575 11.36 78.6575C10.8467 78.6575 10.3613 78.5781 9.904 78.4195C9.44667 78.2515 9.04533 78.0181 8.7 77.7195C8.34533 77.4115 8.07 77.0521 7.874 76.6415C7.66867 76.2308 7.566 75.7735 7.566 75.2695C7.566 74.6628 7.71533 74.1355 8.014 73.6875C8.31267 73.2301 8.69067 72.8475 9.148 72.5395H7.692V71.4475H14.916C15.6067 71.4475 16.19 71.6155 16.666 71.9515C17.142 72.2781 17.5013 72.7261 17.744 73.2955C17.996 73.8555 18.122 74.4808 18.122 75.1715C18.122 75.9928 17.9773 76.6648 17.688 77.1875C17.3987 77.7101 17.0067 78.1441 16.512 78.4895L15.882 77.7755C16.3113 77.4861 16.6333 77.1128 16.848 76.6555C17.0627 76.1888 17.17 75.6941 17.17 75.1715C17.17 74.7235 17.086 74.3128 16.918 73.9395C16.7593 73.5568 16.512 73.2535 16.176 73.0295C15.84 72.7961 15.42 72.6795 14.916 72.6795H13.628C14.076 72.9501 14.4307 73.3235 14.692 73.7995C14.9533 74.2661 15.084 74.7608 15.084 75.2835ZM14.076 74.9055C14.076 74.6441 14.0293 74.3921 13.936 74.1495C13.8427 73.9068 13.7213 73.6828 13.572 73.4775C13.4133 73.2721 13.236 73.0995 13.04 72.9595C12.844 72.8195 12.6433 72.7261 12.438 72.6795H10.338C10.002 72.8101 9.708 72.9968 9.456 73.2395C9.19467 73.4821 8.994 73.7575 8.854 74.0655C8.70467 74.3735 8.63 74.6908 8.63 75.0175C8.63 75.3908 8.70933 75.7268 8.868 76.0255C9.02667 76.3148 9.24133 76.5621 9.512 76.7675C9.77333 76.9728 10.0673 77.1315 10.394 77.2435C10.7207 77.3555 11.052 77.4115 11.388 77.4115C11.752 77.4115 12.0973 77.3461 12.424 77.2155C12.7413 77.0848 13.026 76.9075 13.278 76.6835C13.53 76.4595 13.726 76.1935 13.866 75.8855C14.006 75.5775 14.076 75.2508 14.076 74.9055ZM15.14 66.2251C15.14 66.7758 15.042 67.2798 14.846 67.7371C14.6407 68.1851 14.3653 68.5771 14.02 68.9131C13.6653 69.2398 13.2593 69.4965 12.802 69.6831C12.3447 69.8605 11.8593 69.9491 11.346 69.9491C10.6553 69.9491 10.0253 69.7905 9.456 69.4731C8.88667 69.1558 8.42933 68.7171 8.084 68.1571C7.73867 67.5878 7.566 66.9391 7.566 66.2111C7.566 65.4738 7.74333 64.8345 8.098 64.2931C8.44333 63.7425 8.90067 63.3178 9.47 63.0191C10.03 62.7111 10.6367 62.5571 11.29 62.5571C11.3833 62.5571 11.4767 62.5618 11.57 62.5711C11.654 62.5711 11.7193 62.5758 11.766 62.5851V68.6471C12.242 68.6098 12.6667 68.4791 13.04 68.2551C13.404 68.0218 13.6933 67.7231 13.908 67.3591C14.1133 66.9951 14.216 66.6031 14.216 66.1831C14.216 65.7351 14.104 65.3151 13.88 64.9231C13.656 64.5218 13.362 64.2465 12.998 64.0971L13.292 63.0331C13.6467 63.1918 13.964 63.4298 14.244 63.7471C14.524 64.0551 14.7433 64.4238 14.902 64.8531C15.0607 65.2731 15.14 65.7305 15.14 66.2251ZM10.912 68.6891V63.7051C10.436 63.7425 10.016 63.8778 9.652 64.1111C9.288 64.3445 9.00333 64.6431 8.798 65.0071C8.59267 65.3711 8.49 65.7725 8.49 66.2111C8.49 66.6405 8.59267 67.0371 8.798 67.4011C9.00333 67.7651 9.288 68.0638 9.652 68.2971C10.016 68.5211 10.436 68.6518 10.912 68.6891ZM15.07 53.4186C15.07 54.1186 14.93 54.7533 14.65 55.3226C14.37 55.892 13.992 56.3866 13.516 56.8066C13.0307 57.2173 12.4893 57.5346 11.892 57.7586C11.2853 57.9826 10.6647 58.0946 10.03 58.0946C9.36733 58.0946 8.73733 57.978 8.14 57.7446C7.53333 57.502 6.99667 57.1706 6.53 56.7506C6.054 56.3213 5.68067 55.822 5.41 55.2526C5.13 54.6833 4.99 54.0626 4.99 53.3906C4.99 52.6906 5.13467 52.056 5.424 51.4866C5.71333 50.9173 6.10067 50.4273 6.586 50.0166C7.07133 49.606 7.61267 49.2886 8.21 49.0646C8.80733 48.8406 9.41867 48.7286 10.044 48.7286C10.7067 48.7286 11.3413 48.8453 11.948 49.0786C12.5453 49.312 13.082 49.6433 13.558 50.0726C14.0247 50.4926 14.3933 50.9873 14.664 51.5566C14.9347 52.126 15.07 52.7466 15.07 53.4186ZM10.03 56.8206C10.534 56.8206 11.024 56.7413 11.5 56.5826C11.9667 56.4146 12.382 56.1813 12.746 55.8826C13.11 55.584 13.3993 55.2246 13.614 54.8046C13.8287 54.3846 13.936 53.918 13.936 53.4046C13.936 52.8726 13.824 52.3966 13.6 51.9766C13.376 51.5566 13.0773 51.202 12.704 50.9126C12.3307 50.614 11.9107 50.39 11.444 50.2406C10.9773 50.082 10.506 50.0026 10.03 50.0026C9.526 50.0026 9.04067 50.0866 8.574 50.2546C8.10733 50.4133 7.692 50.6466 7.328 50.9546C6.95467 51.2533 6.66533 51.6126 6.46 52.0326C6.24533 52.4433 6.138 52.9006 6.138 53.4046C6.138 53.9366 6.25 54.4126 6.474 54.8326C6.68867 55.2526 6.98267 55.612 7.356 55.9106C7.72933 56.2 8.14933 56.424 8.616 56.5826C9.07333 56.7413 9.54467 56.8206 10.03 56.8206ZM15 46.782H8.658V47.776H7.692L7.692 46.782H7.538C6.94067 46.782 6.42733 46.6933 5.998 46.516C5.55933 46.3293 5.22333 46.068 4.99 45.732C4.75667 45.396 4.64 44.9993 4.64 44.542C4.64 44.2526 4.682 43.968 4.766 43.688C4.84067 43.408 4.948 43.156 5.088 42.932L5.998 43.24C5.90467 43.3706 5.83 43.534 5.774 43.73C5.718 43.9166 5.69 44.1033 5.69 44.29C5.69 44.6913 5.84867 45.004 6.166 45.228C6.474 45.4426 6.91733 45.55 7.496 45.55H7.692V43.604H8.658V45.55H15V46.782ZM7.384 37.6926H15V38.9526H5.06V37.8886L12.83 31.8126H5.074V30.5526H15V31.7006L7.384 37.6926ZM12.886 29.0175C12.4193 29.0175 12.018 28.8868 11.682 28.6255C11.3367 28.3548 11.0707 27.9862 10.884 27.5195C10.6973 27.0528 10.604 26.5115 10.604 25.8955C10.604 25.5688 10.632 25.2235 10.688 24.8595C10.7347 24.4955 10.8093 24.1735 10.912 23.8935H10.38C9.82 23.8935 9.38133 24.0615 9.064 24.3975C8.73733 24.7335 8.574 25.2095 8.574 25.8255C8.574 26.2268 8.64867 26.6142 8.798 26.9875C8.938 27.3515 9.14333 27.7388 9.414 28.1495L8.546 28.5975C8.21933 28.1215 7.97667 27.6455 7.818 27.1695C7.65 26.6935 7.566 26.1988 7.566 25.6855C7.566 24.7522 7.82733 24.0148 8.35 23.4735C8.86333 22.9322 9.582 22.6615 10.506 22.6615H13.6C13.7493 22.6615 13.8613 22.6335 13.936 22.5775C14.0013 22.5122 14.0387 22.4095 14.048 22.2695H15C15.0187 22.3908 15.0327 22.4982 15.042 22.5915C15.0513 22.6755 15.056 22.7455 15.056 22.8015C15.056 23.0908 14.9767 23.3102 14.818 23.4595C14.6593 23.5995 14.4913 23.6788 14.314 23.6975L13.852 23.7255C14.2627 24.0428 14.58 24.4582 14.804 24.9715C15.028 25.4848 15.14 25.9935 15.14 26.4975C15.14 26.9828 15.042 27.4168 14.846 27.7995C14.6407 28.1822 14.37 28.4808 14.034 28.6955C13.6887 28.9102 13.306 29.0175 12.886 29.0175ZM13.404 24.2575C13.2733 24.1455 13.1427 24.0568 13.012 23.9915C12.872 23.9262 12.7553 23.8935 12.662 23.8935H11.752C11.64 24.1828 11.556 24.4862 11.5 24.8035C11.4347 25.1208 11.402 25.4335 11.402 25.7415C11.402 26.3668 11.528 26.8755 11.78 27.2675C12.0227 27.6502 12.3587 27.8415 12.788 27.8415C13.0213 27.8415 13.25 27.7808 13.474 27.6595C13.6887 27.5288 13.866 27.3422 14.006 27.0995C14.146 26.8475 14.216 26.5395 14.216 26.1755C14.216 25.7928 14.1413 25.4288 13.992 25.0835C13.8333 24.7382 13.6373 24.4628 13.404 24.2575ZM15 9.67355V10.9055H10.912C10.1467 10.9055 9.582 11.0315 9.218 11.2835C8.854 11.5262 8.672 11.8902 8.672 12.3755C8.672 12.8702 8.854 13.3182 9.218 13.7195C9.57267 14.1209 10.0347 14.4055 10.604 14.5735H15V15.8055H10.912C10.1373 15.8055 9.57267 15.9269 9.218 16.1695C8.854 16.4122 8.672 16.7762 8.672 17.2615C8.672 17.7469 8.84933 18.1949 9.204 18.6055C9.54933 19.0069 10.0113 19.2915 10.59 19.4595H15V20.6915H7.692V19.5715H9.26C8.71867 19.2729 8.30333 18.8855 8.014 18.4095C7.71533 17.9335 7.566 17.3969 7.566 16.7995C7.566 16.1929 7.734 15.7075 8.07 15.3435C8.39667 14.9795 8.82133 14.7555 9.344 14.6715C8.76533 14.3449 8.32667 13.9482 8.028 13.4815C7.72 13.0149 7.566 12.4829 7.566 11.8855C7.566 11.4655 7.64533 11.1155 7.804 10.8355C7.95333 10.5462 8.168 10.3175 8.448 10.1495C8.71867 9.98155 9.04067 9.86021 9.414 9.78555C9.78733 9.71088 10.1933 9.67355 10.632 9.67355H15ZM15.14 4.52395C15.14 5.07462 15.042 5.57862 14.846 6.03595C14.6407 6.48395 14.3653 6.87595 14.02 7.21195C13.6653 7.53862 13.2593 7.79529 12.802 7.98195C12.3447 8.15929 11.8593 8.24795 11.346 8.24795C10.6553 8.24795 10.0253 8.08929 9.456 7.77195C8.88667 7.45462 8.42933 7.01595 8.084 6.45595C7.73867 5.88662 7.566 5.23795 7.566 4.50995C7.566 3.77262 7.74333 3.13329 8.098 2.59195C8.44333 2.04129 8.90067 1.61662 9.47 1.31795C10.03 1.00995 10.6367 0.855953 11.29 0.855953C11.3833 0.855953 11.4767 0.86062 11.57 0.869953C11.654 0.869953 11.7193 0.874619 11.766 0.883953V6.94595C12.242 6.90862 12.6667 6.77795 13.04 6.55395C13.404 6.32062 13.6933 6.02195 13.908 5.65795C14.1133 5.29395 14.216 4.90195 14.216 4.48195C14.216 4.03395 14.104 3.61395 13.88 3.22195C13.656 2.82062 13.362 2.54529 12.998 2.39595L13.292 1.33195C13.6467 1.49062 13.964 1.72862 14.244 2.04595C14.524 2.35395 14.7433 2.72262 14.902 3.15195C15.0607 3.57195 15.14 4.02929 15.14 4.52395ZM10.912 6.98795V2.00395C10.436 2.04129 10.016 2.17662 9.652 2.40995C9.288 2.64329 9.00333 2.94195 8.798 3.30595C8.59267 3.66995 8.49 4.07129 8.49 4.50995C8.49 4.93929 8.59267 5.33595 8.798 5.69995C9.00333 6.06395 9.288 6.36262 9.652 6.59595C10.016 6.81995 10.436 6.95062 10.912 6.98795Z" fill="#575555" fill-opacity="0.5"/>
<path d="M6.446 497.586L6.446 500.89H15V502.472H6.446V505.79H5.06L5.06 497.586H6.446ZM15 489.883V491.423H10.898C10.2353 491.423 9.74067 491.544 9.414 491.787C9.08733 492.03 8.924 492.37 8.924 492.809C8.924 493.08 8.99867 493.36 9.148 493.649C9.29733 493.938 9.50267 494.195 9.764 494.419C10.016 494.643 10.31 494.806 10.646 494.909H15V496.449H4.78V494.909H9.148C8.65333 494.629 8.266 494.246 7.986 493.761C7.69667 493.276 7.552 492.753 7.552 492.193C7.552 491.736 7.63133 491.358 7.79 491.059C7.94867 490.76 8.168 490.527 8.448 490.359C8.71867 490.182 9.036 490.06 9.4 489.995C9.75467 489.92 10.1327 489.883 10.534 489.883H15ZM15.14 484.778C15.14 485.347 15.042 485.865 14.846 486.332C14.6407 486.789 14.3653 487.186 14.02 487.522C13.6653 487.858 13.264 488.119 12.816 488.306C12.3587 488.483 11.8733 488.572 11.36 488.572C10.6693 488.572 10.0393 488.413 9.47 488.096C8.89133 487.778 8.42933 487.335 8.084 486.766C7.72933 486.196 7.552 485.529 7.552 484.764C7.552 483.998 7.72933 483.34 8.084 482.79C8.42933 482.23 8.88667 481.796 9.456 481.488C10.0253 481.18 10.6367 481.026 11.29 481.026C11.402 481.026 11.5093 481.03 11.612 481.04C11.7053 481.049 11.7847 481.058 11.85 481.068V486.934C12.2793 486.906 12.6573 486.789 12.984 486.584C13.3013 486.369 13.5533 486.098 13.74 485.772C13.9173 485.445 14.006 485.095 14.006 484.722C14.006 484.311 13.9033 483.924 13.698 483.56C13.4927 483.186 13.222 482.934 12.886 482.804L13.264 481.488C13.6187 481.646 13.9407 481.889 14.23 482.216C14.51 482.533 14.734 482.911 14.902 483.35C15.0607 483.788 15.14 484.264 15.14 484.778ZM10.828 486.976V482.552C10.408 482.58 10.0393 482.701 9.722 482.916C9.39533 483.121 9.14333 483.387 8.966 483.714C8.77933 484.031 8.686 484.386 8.686 484.778C8.686 485.16 8.77933 485.515 8.966 485.842C9.14333 486.159 9.39533 486.42 9.722 486.626C10.0393 486.831 10.408 486.948 10.828 486.976ZM13.614 469.296H15V476.114H5.06L5.06 469.422H6.446L6.446 474.546H9.274V470.108H10.576V474.546H13.614V469.296ZM15.14 463.772C15.14 464.36 15 464.878 14.72 465.326C14.44 465.774 14.076 466.128 13.628 466.39H17.982V467.93H7.678V466.572H8.994C8.55533 466.292 8.20533 465.928 7.944 465.48C7.68267 465.032 7.552 464.532 7.552 463.982C7.552 463.478 7.65467 463.016 7.86 462.596C8.056 462.176 8.33133 461.812 8.686 461.504C9.04067 461.196 9.44667 460.958 9.904 460.79C10.352 460.612 10.828 460.524 11.332 460.524C12.032 460.524 12.6713 460.664 13.25 460.944C13.8287 461.214 14.2907 461.597 14.636 462.092C14.972 462.577 15.14 463.137 15.14 463.772ZM13.824 464.276C13.824 463.949 13.754 463.655 13.614 463.394C13.474 463.123 13.2873 462.894 13.054 462.708C12.8207 462.512 12.5547 462.362 12.256 462.26C11.9573 462.157 11.6493 462.106 11.332 462.106C10.996 462.106 10.6787 462.162 10.38 462.274C10.0813 462.386 9.82 462.549 9.596 462.764C9.372 462.969 9.19467 463.212 9.064 463.492C8.93333 463.762 8.868 464.061 8.868 464.388C8.868 464.584 8.90533 464.789 8.98 465.004C9.05467 465.218 9.15733 465.419 9.288 465.606C9.41867 465.792 9.57267 465.956 9.75 466.096C9.92733 466.236 10.114 466.334 10.31 466.39H12.228C12.5267 466.259 12.7973 466.086 13.04 465.872C13.2733 465.657 13.4647 465.41 13.614 465.13C13.754 464.85 13.824 464.565 13.824 464.276ZM15 459.139H7.678V457.598H15V459.139ZM6.474 459.139H4.78V457.598H6.474V459.139ZM14.622 451.674C14.6873 451.805 14.7573 451.968 14.832 452.164C14.9067 452.36 14.972 452.584 15.028 452.836C15.084 453.079 15.112 453.331 15.112 453.592C15.112 453.909 15.056 454.203 14.944 454.474C14.832 454.745 14.6547 454.964 14.412 455.132C14.16 455.291 13.838 455.37 13.446 455.37H8.868V456.336H7.678V455.37H5.27L5.27 453.83H7.678V452.234H8.868V453.83H12.956C13.208 453.811 13.3947 453.732 13.516 453.592C13.6373 453.443 13.698 453.261 13.698 453.046C13.698 452.831 13.6607 452.626 13.586 452.43C13.5113 452.234 13.4507 452.089 13.404 451.996L14.622 451.674ZM15.14 447.413C15.14 447.992 15.042 448.51 14.846 448.967C14.6407 449.424 14.3607 449.821 14.006 450.157C13.6513 450.484 13.25 450.736 12.802 450.913C12.3447 451.09 11.8593 451.179 11.346 451.179C10.8327 451.179 10.3473 451.09 9.89 450.913C9.43267 450.736 9.03133 450.484 8.686 450.157C8.33133 449.821 8.056 449.424 7.86 448.967C7.65467 448.5 7.552 447.982 7.552 447.413C7.552 446.844 7.65467 446.33 7.86 445.873C8.056 445.406 8.33133 445.01 8.686 444.683C9.03133 444.347 9.43267 444.09 9.89 443.913C10.3473 443.736 10.8327 443.647 11.346 443.647C11.8593 443.647 12.3447 443.736 12.802 443.913C13.25 444.09 13.6513 444.347 14.006 444.683C14.3607 445.01 14.6407 445.406 14.846 445.873C15.042 446.33 15.14 446.844 15.14 447.413ZM11.36 449.597C11.8267 449.597 12.2467 449.499 12.62 449.303C12.9933 449.107 13.2873 448.846 13.502 448.519C13.7167 448.192 13.824 447.824 13.824 447.413C13.824 447.012 13.7167 446.648 13.502 446.321C13.278 445.985 12.9793 445.719 12.606 445.523C12.2233 445.327 11.8033 445.229 11.346 445.229C10.8793 445.229 10.4593 445.327 10.086 445.523C9.71267 445.719 9.41867 445.985 9.204 446.321C8.98 446.648 8.868 447.012 8.868 447.413C8.868 447.824 8.98 448.192 9.204 448.519C9.428 448.846 9.72667 449.107 10.1 449.303C10.464 449.499 10.884 449.597 11.36 449.597ZM15 431.081V432.621H10.898C10.2167 432.621 9.71733 432.733 9.4 432.957C9.08267 433.181 8.924 433.508 8.924 433.937C8.924 434.366 9.08733 434.768 9.414 435.141C9.73133 435.505 10.1467 435.762 10.66 435.911H15V437.451H10.898C10.2167 437.451 9.71733 437.563 9.4 437.787C9.08267 438.011 8.924 438.333 8.924 438.753C8.924 439.182 9.08267 439.584 9.4 439.957C9.71733 440.321 10.1327 440.582 10.646 440.741H15V442.281H7.678V440.881H9.148C8.63467 440.592 8.24267 440.214 7.972 439.747C7.692 439.271 7.552 438.73 7.552 438.123C7.552 437.516 7.71067 437.04 8.028 436.695C8.34533 436.34 8.742 436.121 9.218 436.037C8.67667 435.72 8.266 435.332 7.986 434.875C7.69667 434.408 7.552 433.876 7.552 433.279C7.552 432.85 7.63133 432.49 7.79 432.201C7.94867 431.912 8.168 431.688 8.448 431.529C8.71867 431.37 9.036 431.258 9.4 431.193C9.75467 431.118 10.1327 431.081 10.534 431.081H15ZM15.14 425.988C15.14 426.558 15.042 427.076 14.846 427.542C14.6407 428 14.3653 428.396 14.02 428.732C13.6653 429.068 13.264 429.33 12.816 429.516C12.3587 429.694 11.8733 429.782 11.36 429.782C10.6693 429.782 10.0393 429.624 9.47 429.306C8.89133 428.989 8.42933 428.546 8.084 427.976C7.72933 427.407 7.552 426.74 7.552 425.974C7.552 425.209 7.72933 424.551 8.084 424C8.42933 423.44 8.88667 423.006 9.456 422.698C10.0253 422.39 10.6367 422.236 11.29 422.236C11.402 422.236 11.5093 422.241 11.612 422.25C11.7053 422.26 11.7847 422.269 11.85 422.278V428.144C12.2793 428.116 12.6573 428 12.984 427.794C13.3013 427.58 13.5533 427.309 13.74 426.982C13.9173 426.656 14.006 426.306 14.006 425.932C14.006 425.522 13.9033 425.134 13.698 424.77C13.4927 424.397 13.222 424.145 12.886 424.014L13.264 422.698C13.6187 422.857 13.9407 423.1 14.23 423.426C14.51 423.744 14.734 424.122 14.902 424.56C15.0607 424.999 15.14 425.475 15.14 425.988ZM10.828 428.186V423.762C10.408 423.79 10.0393 423.912 9.722 424.126C9.39533 424.332 9.14333 424.598 8.966 424.924C8.77933 425.242 8.686 425.596 8.686 425.988C8.686 426.371 8.77933 426.726 8.966 427.052C9.14333 427.37 9.39533 427.631 9.722 427.836C10.0393 428.042 10.408 428.158 10.828 428.186ZM7.972 415.757H15V417.325H5.06V416.037L12.242 410.409H5.074V408.827H15V410.199L7.972 415.757ZM15.14 403.594C15.14 404.163 15.042 404.681 14.846 405.148C14.6407 405.605 14.3653 406.002 14.02 406.338C13.6653 406.674 13.264 406.935 12.816 407.122C12.3587 407.299 11.8733 407.388 11.36 407.388C10.6693 407.388 10.0393 407.229 9.47 406.912C8.89133 406.595 8.42933 406.151 8.084 405.582C7.72933 405.013 7.552 404.345 7.552 403.58C7.552 402.815 7.72933 402.157 8.084 401.606C8.42933 401.046 8.88667 400.612 9.456 400.304C10.0253 399.996 10.6367 399.842 11.29 399.842C11.402 399.842 11.5093 399.847 11.612 399.856C11.7053 399.865 11.7847 399.875 11.85 399.884L11.85 405.75C12.2793 405.722 12.6573 405.605 12.984 405.4C13.3013 405.185 13.5533 404.915 13.74 404.588C13.9173 404.261 14.006 403.911 14.006 403.538C14.006 403.127 13.9033 402.74 13.698 402.376C13.4927 402.003 13.222 401.751 12.886 401.62L13.264 400.304C13.6187 400.463 13.9407 400.705 14.23 401.032C14.51 401.349 14.734 401.727 14.902 402.166C15.0607 402.605 15.14 403.081 15.14 403.594ZM10.828 405.792L10.828 401.368C10.408 401.396 10.0393 401.517 9.722 401.732C9.39533 401.937 9.14333 402.203 8.966 402.53C8.77933 402.847 8.686 403.202 8.686 403.594C8.686 403.977 8.77933 404.331 8.966 404.658C9.14333 404.975 9.39533 405.237 9.722 405.442C10.0393 405.647 10.408 405.764 10.828 405.792ZM7.678 389.663V388.193L15 391.273V392.589L11.696 393.905L15 395.221V396.537L7.678 399.631V398.161L13.502 395.809L10.8 394.773L7.692 396.033V394.731L9.974 393.905L7.692 393.093V391.791L10.8 393.037L13.502 392.001L7.678 389.663ZM15.14 384.743C15.14 385.359 15.042 385.943 14.846 386.493C14.6407 387.044 14.3373 387.515 13.936 387.907L12.9 387.333C13.2733 386.913 13.544 386.493 13.712 386.073C13.88 385.644 13.964 385.219 13.964 384.799C13.964 384.37 13.8847 384.02 13.726 383.749C13.558 383.479 13.3153 383.343 12.998 383.343C12.7647 383.343 12.592 383.413 12.48 383.553C12.368 383.693 12.27 383.899 12.186 384.169C12.102 384.431 12.0087 384.748 11.906 385.121C11.7473 385.644 11.584 386.083 11.416 386.437C11.2387 386.792 11.024 387.058 10.772 387.235C10.52 387.413 10.198 387.501 9.806 387.501C9.33 387.501 8.924 387.38 8.588 387.137C8.252 386.895 7.99533 386.559 7.818 386.129C7.64067 385.691 7.552 385.187 7.552 384.617C7.552 384.085 7.636 383.595 7.804 383.147C7.96267 382.69 8.21467 382.289 8.56 381.943L9.582 382.601C9.28333 382.928 9.064 383.264 8.924 383.609C8.784 383.945 8.714 384.309 8.714 384.701C8.714 384.925 8.742 385.14 8.798 385.345C8.84467 385.551 8.938 385.723 9.078 385.863C9.20867 385.994 9.39533 386.059 9.638 386.059C9.834 386.059 9.99267 386.003 10.114 385.891C10.2353 385.779 10.338 385.611 10.422 385.387C10.506 385.163 10.5993 384.888 10.702 384.561C10.87 383.992 11.038 383.507 11.206 383.105C11.3647 382.704 11.5747 382.396 11.836 382.181C12.088 381.957 12.438 381.845 12.886 381.845C13.5953 381.845 14.1507 382.111 14.552 382.643C14.944 383.166 15.14 383.866 15.14 384.743Z" fill="black"/>
<path d="M15 309.81H5.06V308.55H13.88V303.006H15V309.81ZM15.14 298.748C15.14 299.298 15.042 299.798 14.846 300.246C14.6407 300.694 14.3653 301.081 14.02 301.408C13.6653 301.734 13.2593 301.986 12.802 302.164C12.3447 302.341 11.864 302.43 11.36 302.43C10.8467 302.43 10.3613 302.341 9.904 302.164C9.44667 301.986 9.04533 301.734 8.7 301.408C8.34533 301.081 8.07 300.694 7.874 300.246C7.66867 299.788 7.566 299.289 7.566 298.748C7.566 298.197 7.66867 297.698 7.874 297.25C8.07 296.802 8.34533 296.414 8.7 296.088C9.04533 295.752 9.44667 295.495 9.904 295.318C10.3613 295.14 10.8467 295.052 11.36 295.052C11.864 295.052 12.3447 295.14 12.802 295.318C13.2593 295.495 13.6653 295.747 14.02 296.074C14.3653 296.4 14.6407 296.792 14.846 297.25C15.042 297.698 15.14 298.197 15.14 298.748ZM11.374 301.17C11.878 301.17 12.3353 301.062 12.746 300.848C13.1567 300.624 13.4833 300.33 13.726 299.966C13.9593 299.602 14.076 299.196 14.076 298.748C14.076 298.3 13.9547 297.894 13.712 297.53C13.4693 297.156 13.1427 296.862 12.732 296.648C12.312 296.424 11.85 296.312 11.346 296.312C10.842 296.312 10.3847 296.424 9.974 296.648C9.56333 296.862 9.23667 297.156 8.994 297.53C8.75133 297.894 8.63 298.3 8.63 298.748C8.63 299.196 8.756 299.602 9.008 299.966C9.25067 300.33 9.57733 300.624 9.988 300.848C10.3987 301.062 10.8607 301.17 11.374 301.17ZM15.14 291.053C15.14 291.659 15.042 292.229 14.846 292.761C14.6407 293.293 14.3373 293.75 13.936 294.133L13.068 293.657C13.46 293.237 13.74 292.817 13.908 292.397C14.076 291.977 14.16 291.547 14.16 291.109C14.16 290.605 14.0667 290.194 13.88 289.877C13.684 289.559 13.3993 289.401 13.026 289.401C12.7553 289.401 12.5547 289.485 12.424 289.653C12.2933 289.811 12.186 290.04 12.102 290.339C12.0087 290.637 11.906 290.992 11.794 291.403C11.6447 291.907 11.486 292.331 11.318 292.677C11.15 293.022 10.94 293.283 10.688 293.461C10.436 293.638 10.1187 293.727 9.736 293.727C9.26933 293.727 8.87733 293.605 8.56 293.363C8.23333 293.12 7.986 292.789 7.818 292.369C7.65 291.939 7.566 291.454 7.566 290.913C7.566 290.371 7.65 289.881 7.818 289.443C7.986 289.004 8.23333 288.626 8.56 288.309L9.414 288.869C9.11533 289.158 8.896 289.475 8.756 289.821C8.60667 290.166 8.532 290.553 8.532 290.983C8.532 291.235 8.56467 291.482 8.63 291.725C8.686 291.967 8.79333 292.168 8.952 292.327C9.10133 292.485 9.316 292.565 9.596 292.565C9.82933 292.565 10.016 292.504 10.156 292.383C10.2867 292.252 10.3987 292.065 10.492 291.823C10.5853 291.571 10.688 291.267 10.8 290.913C10.9587 290.362 11.1173 289.886 11.276 289.485C11.4347 289.074 11.64 288.757 11.892 288.533C12.144 288.309 12.494 288.197 12.942 288.197C13.6327 288.197 14.174 288.458 14.566 288.981C14.9487 289.503 15.14 290.194 15.14 291.053ZM15.14 284.217C15.14 284.823 15.042 285.393 14.846 285.925C14.6407 286.457 14.3373 286.914 13.936 287.297L13.068 286.821C13.46 286.401 13.74 285.981 13.908 285.561C14.076 285.141 14.16 284.711 14.16 284.273C14.16 283.769 14.0667 283.358 13.88 283.041C13.684 282.723 13.3993 282.565 13.026 282.565C12.7553 282.565 12.5547 282.649 12.424 282.817C12.2933 282.975 12.186 283.204 12.102 283.503C12.0087 283.801 11.906 284.156 11.794 284.567C11.6447 285.071 11.486 285.495 11.318 285.841C11.15 286.186 10.94 286.447 10.688 286.625C10.436 286.802 10.1187 286.891 9.736 286.891C9.26933 286.891 8.87733 286.769 8.56 286.527C8.23333 286.284 7.986 285.953 7.818 285.533C7.65 285.103 7.566 284.618 7.566 284.077C7.566 283.535 7.65 283.045 7.818 282.607C7.986 282.168 8.23333 281.79 8.56 281.473L9.414 282.033C9.11533 282.322 8.896 282.639 8.756 282.985C8.60667 283.33 8.532 283.717 8.532 284.147C8.532 284.399 8.56467 284.646 8.63 284.889C8.686 285.131 8.79333 285.332 8.952 285.491C9.10133 285.649 9.316 285.729 9.596 285.729C9.82933 285.729 10.016 285.668 10.156 285.547C10.2867 285.416 10.3987 285.229 10.492 284.987C10.5853 284.735 10.688 284.431 10.8 284.077C10.9587 283.526 11.1173 283.05 11.276 282.649C11.4347 282.238 11.64 281.921 11.892 281.697C12.144 281.473 12.494 281.361 12.942 281.361C13.6327 281.361 14.174 281.622 14.566 282.145C14.9487 282.667 15.14 283.358 15.14 284.217ZM15.07 272.118C15.07 272.818 14.93 273.453 14.65 274.022C14.37 274.591 13.992 275.086 13.516 275.506C13.0307 275.917 12.4893 276.234 11.892 276.458C11.2853 276.682 10.6647 276.794 10.03 276.794C9.36733 276.794 8.73733 276.677 8.14 276.444C7.53333 276.201 6.99667 275.87 6.53 275.45C6.054 275.021 5.68067 274.521 5.41 273.952C5.13 273.383 4.99 272.762 4.99 272.09C4.99 271.39 5.13467 270.755 5.424 270.186C5.71333 269.617 6.10067 269.127 6.586 268.716C7.07133 268.305 7.61267 267.988 8.21 267.764C8.80733 267.54 9.41867 267.428 10.044 267.428C10.7067 267.428 11.3413 267.545 11.948 267.778C12.5453 268.011 13.082 268.343 13.558 268.772C14.0247 269.192 14.3933 269.687 14.664 270.256C14.9347 270.825 15.07 271.446 15.07 272.118ZM10.03 275.52C10.534 275.52 11.024 275.441 11.5 275.282C11.9667 275.114 12.382 274.881 12.746 274.582C13.11 274.283 13.3993 273.924 13.614 273.504C13.8287 273.084 13.936 272.617 13.936 272.104C13.936 271.572 13.824 271.096 13.6 270.676C13.376 270.256 13.0773 269.901 12.704 269.612C12.3307 269.313 11.9107 269.089 11.444 268.94C10.9773 268.781 10.506 268.702 10.03 268.702C9.526 268.702 9.04067 268.786 8.574 268.954C8.10733 269.113 7.692 269.346 7.328 269.654C6.95467 269.953 6.66533 270.312 6.46 270.732C6.24533 271.143 6.138 271.6 6.138 272.104C6.138 272.636 6.25 273.112 6.474 273.532C6.68867 273.952 6.98267 274.311 7.356 274.61C7.72933 274.899 8.14933 275.123 8.616 275.282C9.07333 275.441 9.54467 275.52 10.03 275.52ZM15 265.481H8.658V266.475H7.692V265.481H7.538C6.94067 265.481 6.42733 265.393 5.998 265.215C5.55933 265.029 5.22333 264.767 4.99 264.431C4.75667 264.095 4.64 263.699 4.64 263.241C4.64 262.952 4.682 262.667 4.766 262.387C4.84067 262.107 4.948 261.855 5.088 261.631L5.998 261.939C5.90467 262.07 5.83 262.233 5.774 262.429C5.718 262.616 5.69 262.803 5.69 262.989C5.69 263.391 5.84867 263.703 6.166 263.927C6.474 264.142 6.91733 264.249 7.496 264.249H7.692V262.303H8.658V264.249H15V265.481ZM15 257.652H5.06V254.208C5.06 253.144 5.284 252.257 5.732 251.548C6.17067 250.829 6.768 250.292 7.524 249.938C8.27067 249.583 9.10133 249.406 10.016 249.406C11.024 249.406 11.9013 249.602 12.648 249.994C13.3947 250.386 13.9733 250.941 14.384 251.66C14.7947 252.378 15 253.228 15 254.208V257.652ZM10.016 250.68C9.26933 250.68 8.60667 250.82 8.028 251.1C7.44933 251.37 6.99667 251.767 6.67 252.29C6.34333 252.812 6.18 253.452 6.18 254.208V256.392H13.88V254.208C13.88 253.442 13.712 252.798 13.376 252.276C13.0307 251.753 12.5687 251.356 11.99 251.086C11.402 250.815 10.744 250.68 10.016 250.68ZM15.14 244.634C15.14 245.185 15.042 245.684 14.846 246.132C14.6407 246.58 14.3653 246.968 14.02 247.294C13.6653 247.621 13.2593 247.873 12.802 248.05C12.3447 248.228 11.864 248.316 11.36 248.316C10.8467 248.316 10.3613 248.228 9.904 248.05C9.44667 247.873 9.04533 247.621 8.7 247.294C8.34533 246.968 8.07 246.58 7.874 246.132C7.66867 245.675 7.566 245.176 7.566 244.634C7.566 244.084 7.66867 243.584 7.874 243.136C8.07 242.688 8.34533 242.301 8.7 241.974C9.04533 241.638 9.44667 241.382 9.904 241.204C10.3613 241.027 10.8467 240.938 11.36 240.938C11.864 240.938 12.3447 241.027 12.802 241.204C13.2593 241.382 13.6653 241.634 14.02 241.96C14.3653 242.287 14.6407 242.679 14.846 243.136C15.042 243.584 15.14 244.084 15.14 244.634ZM11.374 247.056C11.878 247.056 12.3353 246.949 12.746 246.734C13.1567 246.51 13.4833 246.216 13.726 245.852C13.9593 245.488 14.076 245.082 14.076 244.634C14.076 244.186 13.9547 243.78 13.712 243.416C13.4693 243.043 13.1427 242.749 12.732 242.534C12.312 242.31 11.85 242.198 11.346 242.198C10.842 242.198 10.3847 242.31 9.974 242.534C9.56333 242.749 9.23667 243.043 8.994 243.416C8.75133 243.78 8.63 244.186 8.63 244.634C8.63 245.082 8.756 245.488 9.008 245.852C9.25067 246.216 9.57733 246.51 9.988 246.734C10.3987 246.949 10.8607 247.056 11.374 247.056ZM15.14 236.211C15.14 236.762 15.042 237.266 14.846 237.723C14.6407 238.171 14.3607 238.563 14.006 238.899C13.6513 239.226 13.2453 239.483 12.788 239.669C12.3307 239.847 11.8453 239.935 11.332 239.935C10.6413 239.935 10.0113 239.781 9.442 239.473C8.87267 239.165 8.42 238.731 8.084 238.171C7.73867 237.611 7.566 236.963 7.566 236.225C7.566 235.507 7.72933 234.881 8.056 234.349C8.37333 233.808 8.80267 233.407 9.344 233.145L9.722 234.349C9.37667 234.536 9.11067 234.797 8.924 235.133C8.728 235.469 8.63 235.843 8.63 236.253C8.63 236.701 8.74667 237.112 8.98 237.485C9.21333 237.849 9.53533 238.139 9.946 238.353C10.3473 238.568 10.8093 238.675 11.332 238.675C11.8453 238.675 12.312 238.568 12.732 238.353C13.1427 238.129 13.4693 237.835 13.712 237.471C13.9547 237.098 14.076 236.687 14.076 236.239C14.076 235.95 14.0247 235.675 13.922 235.413C13.8193 235.143 13.684 234.909 13.516 234.713C13.3387 234.508 13.1473 234.368 12.942 234.293L13.306 233.089C13.6607 233.239 13.978 233.467 14.258 233.775C14.5287 234.074 14.7433 234.433 14.902 234.853C15.0607 235.264 15.14 235.717 15.14 236.211ZM12.074 231.764H7.692L7.692 230.531H11.836C12.5827 230.531 13.1427 230.401 13.516 230.139C13.8893 229.878 14.076 229.491 14.076 228.977C14.076 228.641 14.006 228.319 13.866 228.011C13.7167 227.694 13.5067 227.409 13.236 227.157C12.9653 226.905 12.6433 226.709 12.27 226.569H7.692V225.337H13.6C13.7493 225.337 13.8613 225.309 13.936 225.253C14.0013 225.188 14.0387 225.085 14.048 224.945H15C15.0187 225.085 15.028 225.197 15.028 225.281C15.0373 225.356 15.042 225.431 15.042 225.505C15.042 225.739 14.972 225.939 14.832 226.107C14.6827 226.275 14.5007 226.364 14.286 226.373L13.432 226.401C13.9733 226.719 14.3933 227.148 14.692 227.689C14.9907 228.221 15.14 228.805 15.14 229.439C15.14 230.205 14.8833 230.783 14.37 231.175C13.8473 231.567 13.082 231.764 12.074 231.764ZM15 212.267V213.499H10.912C10.1467 213.499 9.582 213.625 9.218 213.877C8.854 214.12 8.672 214.484 8.672 214.969C8.672 215.464 8.854 215.912 9.218 216.313C9.57267 216.715 10.0347 216.999 10.604 217.167H15V218.399H10.912C10.1373 218.399 9.57267 218.521 9.218 218.763C8.854 219.006 8.672 219.37 8.672 219.855C8.672 220.341 8.84933 220.789 9.204 221.199C9.54933 221.601 10.0113 221.885 10.59 222.053H15V223.285H7.692V222.165H9.26C8.71867 221.867 8.30333 221.479 8.014 221.003C7.71533 220.527 7.566 219.991 7.566 219.393C7.566 218.787 7.734 218.301 8.07 217.937C8.39667 217.573 8.82133 217.349 9.344 217.265C8.76533 216.939 8.32667 216.542 8.028 216.075C7.72 215.609 7.566 215.077 7.566 214.479C7.566 214.059 7.64533 213.709 7.804 213.429C7.95333 213.14 8.168 212.911 8.448 212.743C8.71867 212.575 9.04067 212.454 9.414 212.379C9.78733 212.305 10.1933 212.267 10.632 212.267H15ZM15.14 207.118C15.14 207.668 15.042 208.172 14.846 208.63C14.6407 209.078 14.3653 209.47 14.02 209.806C13.6653 210.132 13.2593 210.389 12.802 210.576C12.3447 210.753 11.8593 210.842 11.346 210.842C10.6553 210.842 10.0253 210.683 9.456 210.366C8.88667 210.048 8.42933 209.61 8.084 209.05C7.73867 208.48 7.566 207.832 7.566 207.104C7.566 206.366 7.74333 205.727 8.098 205.186C8.44333 204.635 8.90067 204.21 9.47 203.912C10.03 203.604 10.6367 203.45 11.29 203.45C11.3833 203.45 11.4767 203.454 11.57 203.464C11.654 203.464 11.7193 203.468 11.766 203.478L11.766 209.54C12.242 209.502 12.6667 209.372 13.04 209.148C13.404 208.914 13.6933 208.616 13.908 208.252C14.1133 207.888 14.216 207.496 14.216 207.076C14.216 206.628 14.104 206.208 13.88 205.816C13.656 205.414 13.362 205.139 12.998 204.99L13.292 203.926C13.6467 204.084 13.964 204.322 14.244 204.64C14.524 204.948 14.7433 205.316 14.902 205.746C15.0607 206.166 15.14 206.623 15.14 207.118ZM10.912 209.582L10.912 204.598C10.436 204.635 10.016 204.77 9.652 205.004C9.288 205.237 9.00333 205.536 8.798 205.9C8.59267 206.264 8.49 206.665 8.49 207.104C8.49 207.533 8.59267 207.93 8.798 208.294C9.00333 208.658 9.288 208.956 9.652 209.19C10.016 209.414 10.436 209.544 10.912 209.582ZM15 195.738V196.97H10.912C10.1373 196.97 9.57267 197.092 9.218 197.334C8.854 197.568 8.672 197.927 8.672 198.412C8.672 198.748 8.756 199.084 8.924 199.42C9.092 199.747 9.32067 200.041 9.61 200.302C9.89 200.554 10.2167 200.736 10.59 200.848H15V202.08H7.692V200.96H9.26C8.91467 200.764 8.616 200.512 8.364 200.204C8.112 199.896 7.916 199.546 7.776 199.154C7.636 198.762 7.566 198.352 7.566 197.922C7.566 197.502 7.64533 197.152 7.804 196.872C7.95333 196.583 8.168 196.359 8.448 196.2C8.71867 196.032 9.04067 195.916 9.414 195.85C9.78733 195.776 10.1933 195.738 10.632 195.738H15ZM14.636 190.111C14.6827 190.213 14.7433 190.353 14.818 190.531C14.8927 190.708 14.958 190.913 15.014 191.147C15.07 191.38 15.098 191.627 15.098 191.889C15.098 192.187 15.0467 192.463 14.944 192.715C14.832 192.967 14.664 193.167 14.44 193.317C14.2067 193.466 13.9173 193.541 13.572 193.541H8.658V194.535H7.692V193.541H5.256V192.309H7.692V190.671H8.658V192.309H13.194C13.4553 192.29 13.6513 192.201 13.782 192.043C13.9033 191.884 13.964 191.697 13.964 191.483C13.964 191.24 13.922 191.016 13.838 190.811C13.754 190.605 13.6933 190.47 13.656 190.405L14.636 190.111ZM15.14 186.463C15.14 187.07 15.042 187.639 14.846 188.171C14.6407 188.703 14.3373 189.16 13.936 189.543L13.068 189.067C13.46 188.647 13.74 188.227 13.908 187.807C14.076 187.387 14.16 186.958 14.16 186.519C14.16 186.015 14.0667 185.604 13.88 185.287C13.684 184.97 13.3993 184.811 13.026 184.811C12.7553 184.811 12.5547 184.895 12.424 185.063C12.2933 185.222 12.186 185.45 12.102 185.749C12.0087 186.048 11.906 186.402 11.794 186.813C11.6447 187.317 11.486 187.742 11.318 188.087C11.15 188.432 10.94 188.694 10.688 188.871C10.436 189.048 10.1187 189.137 9.736 189.137C9.26933 189.137 8.87733 189.016 8.56 188.773C8.23333 188.53 7.986 188.199 7.818 187.779C7.65 187.35 7.566 186.864 7.566 186.323C7.566 185.782 7.65 185.292 7.818 184.853C7.986 184.414 8.23333 184.036 8.56 183.719L9.414 184.279C9.11533 184.568 8.896 184.886 8.756 185.231C8.60667 185.576 8.532 185.964 8.532 186.393C8.532 186.645 8.56467 186.892 8.63 187.135C8.686 187.378 8.79333 187.578 8.952 187.737C9.10133 187.896 9.316 187.975 9.596 187.975C9.82933 187.975 10.016 187.914 10.156 187.793C10.2867 187.662 10.3987 187.476 10.492 187.233C10.5853 186.981 10.688 186.678 10.8 186.323C10.9587 185.772 11.1173 185.296 11.276 184.895C11.4347 184.484 11.64 184.167 11.892 183.943C12.144 183.719 12.494 183.607 12.942 183.607C13.6327 183.607 14.174 183.868 14.566 184.391C14.9487 184.914 15.14 185.604 15.14 186.463Z" fill="#575555" fill-opacity="0.5"/>
<path d="M15 753.81H5.06V749.666C5.06 749.227 5.15333 748.826 5.34 748.462C5.51733 748.098 5.76 747.781 6.068 747.51C6.36667 747.239 6.70733 747.029 7.09 746.88C7.46333 746.731 7.846 746.656 8.238 746.656C8.77933 746.656 9.29733 746.777 9.792 747.02C10.2773 747.263 10.674 747.603 10.982 748.042C11.2807 748.481 11.43 748.994 11.43 749.582V752.55H15V753.81ZM10.31 752.55V749.652C10.31 749.307 10.2167 749.008 10.03 748.756C9.84333 748.495 9.59133 748.294 9.274 748.154C8.95667 748.005 8.61133 747.93 8.238 747.93C7.846 747.93 7.496 748.014 7.188 748.182C6.87067 748.35 6.62333 748.569 6.446 748.84C6.26867 749.111 6.18 749.409 6.18 749.736V752.55H10.31ZM12.074 745.353H7.692V744.121H11.836C12.5827 744.121 13.1427 743.991 13.516 743.729C13.8893 743.468 14.076 743.081 14.076 742.567C14.076 742.231 14.006 741.909 13.866 741.601C13.7167 741.284 13.5067 740.999 13.236 740.747C12.9653 740.495 12.6433 740.299 12.27 740.159H7.692V738.927H13.6C13.7493 738.927 13.8613 738.899 13.936 738.843C14.0013 738.778 14.0387 738.675 14.048 738.535H15C15.0187 738.675 15.028 738.787 15.028 738.871C15.0373 738.946 15.042 739.021 15.042 739.095C15.042 739.329 14.972 739.529 14.832 739.697C14.6827 739.865 14.5007 739.954 14.286 739.963L13.432 739.991C13.9733 740.309 14.3933 740.738 14.692 741.279C14.9907 741.811 15.14 742.395 15.14 743.029C15.14 743.795 14.8833 744.373 14.37 744.765C13.8473 745.157 13.082 745.353 12.074 745.353ZM15.14 733.123C15.14 733.692 15 734.21 14.72 734.677C14.44 735.144 14.076 735.512 13.628 735.783H15V736.875H4.78V735.643H9.148C8.672 735.335 8.28933 734.957 8 734.509C7.71067 734.061 7.566 733.538 7.566 732.941C7.566 732.437 7.67333 731.984 7.888 731.583C8.09333 731.182 8.378 730.841 8.742 730.561C9.09667 730.272 9.50267 730.052 9.96 729.903C10.408 729.744 10.8793 729.665 11.374 729.665C11.8873 729.665 12.3727 729.754 12.83 729.931C13.278 730.099 13.6793 730.342 14.034 730.659C14.3793 730.976 14.65 731.345 14.846 731.765C15.042 732.176 15.14 732.628 15.14 733.123ZM14.076 733.431C14.076 733.067 14.0013 732.731 13.852 732.423C13.7027 732.115 13.502 731.849 13.25 731.625C12.998 731.401 12.7087 731.228 12.382 731.107C12.0553 730.986 11.7193 730.925 11.374 730.925C10.898 730.925 10.45 731.028 10.03 731.233C9.61 731.429 9.274 731.709 9.022 732.073C8.76067 732.428 8.63 732.843 8.63 733.319C8.63 733.664 8.70933 733.986 8.868 734.285C9.02667 734.584 9.23667 734.85 9.498 735.083C9.75 735.307 10.03 735.494 10.338 735.643H12.452C12.6853 735.596 12.9 735.498 13.096 735.349C13.292 735.2 13.4647 735.018 13.614 734.803C13.754 734.588 13.866 734.364 13.95 734.131C14.034 733.888 14.076 733.655 14.076 733.431ZM4.78 728.124V726.892H13.11C13.5113 726.892 13.7587 726.836 13.852 726.724C13.9453 726.612 13.992 726.477 13.992 726.318C13.992 726.122 13.9733 725.936 13.936 725.758C13.8893 725.581 13.8427 725.432 13.796 725.31L14.804 725.114C14.888 725.32 14.958 725.562 15.014 725.842C15.07 726.122 15.098 726.37 15.098 726.584C15.098 727.06 14.9627 727.438 14.692 727.718C14.4213 727.989 14.0433 728.124 13.558 728.124H4.78ZM15 724.147H7.692V722.915H15V724.147ZM6.32 724.147H4.78V722.915H6.32V724.147ZM15.14 717.686C15.14 718.237 15.042 718.741 14.846 719.198C14.6407 719.646 14.3607 720.038 14.006 720.374C13.6513 720.701 13.2453 720.957 12.788 721.144C12.3307 721.321 11.8453 721.41 11.332 721.41C10.6413 721.41 10.0113 721.256 9.442 720.948C8.87267 720.64 8.42 720.206 8.084 719.646C7.73867 719.086 7.566 718.437 7.566 717.7C7.566 716.981 7.72933 716.356 8.056 715.824C8.37333 715.283 8.80267 714.881 9.344 714.62L9.722 715.824C9.37667 716.011 9.11067 716.272 8.924 716.608C8.728 716.944 8.63 717.317 8.63 717.728C8.63 718.176 8.74667 718.587 8.98 718.96C9.21333 719.324 9.53533 719.613 9.946 719.828C10.3473 720.043 10.8093 720.15 11.332 720.15C11.8453 720.15 12.312 720.043 12.732 719.828C13.1427 719.604 13.4693 719.31 13.712 718.946C13.9547 718.573 14.076 718.162 14.076 717.714C14.076 717.425 14.0247 717.149 13.922 716.888C13.8193 716.617 13.684 716.384 13.516 716.188C13.3387 715.983 13.1473 715.843 12.942 715.768L13.306 714.564C13.6607 714.713 13.978 714.942 14.258 715.25C14.5287 715.549 14.7433 715.908 14.902 716.328C15.0607 716.739 15.14 717.191 15.14 717.686ZM7.384 708.171H15V709.431H5.06V708.367L12.83 702.291H5.074V701.031H15V702.179L7.384 708.171ZM15.14 695.785C15.14 696.335 15.042 696.835 14.846 697.283C14.6407 697.731 14.3653 698.118 14.02 698.445C13.6653 698.771 13.2593 699.023 12.802 699.201C12.3447 699.378 11.864 699.467 11.36 699.467C10.8467 699.467 10.3613 699.378 9.904 699.201C9.44667 699.023 9.04533 698.771 8.7 698.445C8.34533 698.118 8.07 697.731 7.874 697.283C7.66867 696.825 7.566 696.326 7.566 695.785C7.566 695.234 7.66867 694.735 7.874 694.287C8.07 693.839 8.34533 693.451 8.7 693.125C9.04533 692.789 9.44667 692.532 9.904 692.355C10.3613 692.177 10.8467 692.089 11.36 692.089C11.864 692.089 12.3447 692.177 12.802 692.355C13.2593 692.532 13.6653 692.784 14.02 693.111C14.3653 693.437 14.6407 693.829 14.846 694.287C15.042 694.735 15.14 695.234 15.14 695.785ZM11.374 698.207C11.878 698.207 12.3353 698.099 12.746 697.885C13.1567 697.661 13.4833 697.367 13.726 697.003C13.9593 696.639 14.076 696.233 14.076 695.785C14.076 695.337 13.9547 694.931 13.712 694.567C13.4693 694.193 13.1427 693.899 12.732 693.685C12.312 693.461 11.85 693.349 11.346 693.349C10.842 693.349 10.3847 693.461 9.974 693.685C9.56333 693.899 9.23667 694.193 8.994 694.567C8.75133 694.931 8.63 695.337 8.63 695.785C8.63 696.233 8.756 696.639 9.008 697.003C9.25067 697.367 9.57733 697.661 9.988 697.885C10.3987 698.099 10.8607 698.207 11.374 698.207ZM14.636 686.925C14.6827 687.028 14.7433 687.168 14.818 687.345C14.8927 687.523 14.958 687.728 15.014 687.961C15.07 688.195 15.098 688.442 15.098 688.703C15.098 689.002 15.0467 689.277 14.944 689.529C14.832 689.781 14.664 689.982 14.44 690.131C14.2067 690.281 13.9173 690.355 13.572 690.355H8.658V691.349H7.692V690.355H5.256L5.256 689.123H7.692V687.485H8.658V689.123H13.194C13.4553 689.105 13.6513 689.016 13.782 688.857C13.9033 688.699 13.964 688.512 13.964 688.297C13.964 688.055 13.922 687.831 13.838 687.625C13.754 687.42 13.6933 687.285 13.656 687.219L14.636 686.925ZM15 685.783H7.692V684.551H15V685.783ZM6.32 685.783H4.78V684.551H6.32V685.783ZM15.14 679.323C15.14 679.873 15.042 680.377 14.846 680.835C14.6407 681.283 14.3607 681.675 14.006 682.011C13.6513 682.337 13.2453 682.594 12.788 682.781C12.3307 682.958 11.8453 683.047 11.332 683.047C10.6413 683.047 10.0113 682.893 9.442 682.585C8.87267 682.277 8.42 681.843 8.084 681.283C7.73867 680.723 7.566 680.074 7.566 679.337C7.566 678.618 7.72933 677.993 8.056 677.461C8.37333 676.919 8.80267 676.518 9.344 676.257L9.722 677.461C9.37667 677.647 9.11067 677.909 8.924 678.245C8.728 678.581 8.63 678.954 8.63 679.365C8.63 679.813 8.74667 680.223 8.98 680.597C9.21333 680.961 9.53533 681.25 9.946 681.465C10.3473 681.679 10.8093 681.787 11.332 681.787C11.8453 681.787 12.312 681.679 12.732 681.465C13.1427 681.241 13.4693 680.947 13.712 680.583C13.9547 680.209 14.076 679.799 14.076 679.351C14.076 679.061 14.0247 678.786 13.922 678.525C13.8193 678.254 13.684 678.021 13.516 677.825C13.3387 677.619 13.1473 677.479 12.942 677.405L13.306 676.201C13.6607 676.35 13.978 676.579 14.258 676.887C14.5287 677.185 14.7433 677.545 14.902 677.965C15.0607 678.375 15.14 678.828 15.14 679.323ZM15.14 671.639C15.14 672.19 15.042 672.694 14.846 673.151C14.6407 673.599 14.3653 673.991 14.02 674.327C13.6653 674.654 13.2593 674.911 12.802 675.097C12.3447 675.275 11.8593 675.363 11.346 675.363C10.6553 675.363 10.0253 675.205 9.456 674.887C8.88667 674.57 8.42933 674.131 8.084 673.571C7.73867 673.002 7.566 672.353 7.566 671.625C7.566 670.888 7.74333 670.249 8.098 669.707C8.44333 669.157 8.90067 668.732 9.47 668.433C10.03 668.125 10.6367 667.971 11.29 667.971C11.3833 667.971 11.4767 667.976 11.57 667.985C11.654 667.985 11.7193 667.99 11.766 667.999V674.061C12.242 674.024 12.6667 673.893 13.04 673.669C13.404 673.436 13.6933 673.137 13.908 672.773C14.1133 672.409 14.216 672.017 14.216 671.597C14.216 671.149 14.104 670.729 13.88 670.337C13.656 669.936 13.362 669.661 12.998 669.511L13.292 668.447C13.6467 668.606 13.964 668.844 14.244 669.161C14.524 669.469 14.7433 669.838 14.902 670.267C15.0607 670.687 15.14 671.145 15.14 671.639ZM10.912 674.103V669.119C10.436 669.157 10.016 669.292 9.652 669.525C9.288 669.759 9.00333 670.057 8.798 670.421C8.59267 670.785 8.49 671.187 8.49 671.625C8.49 672.055 8.59267 672.451 8.798 672.815C9.00333 673.179 9.288 673.478 9.652 673.711C10.016 673.935 10.436 674.066 10.912 674.103Z" fill="#575555" fill-opacity="0.5"/>
<path d="M5.06 623.786V622.722L15 618.662V620.006L12.088 621.182V625.354L15 626.516V627.86L5.06 623.786ZM11.108 621.462L6.516 623.254L11.108 625.102V621.462ZM15 617.372H8.658V618.366H7.692V617.372H7.636C7.20667 617.372 6.80533 617.278 6.432 617.092C6.05867 616.896 5.75533 616.62 5.522 616.266C5.28867 615.911 5.172 615.491 5.172 615.006C5.172 614.651 5.214 614.348 5.298 614.096C5.37267 613.834 5.47067 613.582 5.592 613.34L6.544 613.676C6.41333 613.881 6.32933 614.068 6.292 614.236C6.25467 614.404 6.236 614.581 6.236 614.768C6.236 614.992 6.278 615.192 6.362 615.37C6.43667 615.538 6.53933 615.682 6.67 615.804C6.80067 615.916 6.95 616 7.118 616.056C7.27667 616.112 7.43533 616.14 7.594 616.14H7.692V614.194H8.658V616.14H15V617.372ZM8.658 614.012V615.006H7.692V614.012H7.538C7.174 614.012 6.824 613.956 6.488 613.844C6.14267 613.732 5.83 613.564 5.55 613.34C5.27 613.116 5.05067 612.836 4.892 612.5C4.724 612.164 4.64 611.767 4.64 611.31C4.64 610.964 4.67733 610.647 4.752 610.358C4.82667 610.068 4.92 609.812 5.032 609.588C5.144 609.354 5.256 609.163 5.368 609.014L6.278 609.546C6.11933 609.723 5.984 609.966 5.872 610.274C5.76 610.572 5.704 610.894 5.704 611.24C5.704 611.594 5.79267 611.888 5.97 612.122C6.14733 612.346 6.376 612.514 6.656 612.626C6.92667 612.728 7.20667 612.78 7.496 612.78H7.692V609.042H15V610.274H8.658V612.78H15L15 614.012H8.658ZM11.36 607.535C10.6693 607.535 10.0393 607.395 9.47 607.115C8.89133 606.825 8.42933 606.433 8.084 605.939C7.73867 605.435 7.566 604.861 7.566 604.217C7.566 603.629 7.72 603.101 8.028 602.635C8.336 602.168 8.70933 601.804 9.148 601.543H4.78V600.311H13.6C13.7493 600.311 13.8613 600.283 13.936 600.227C14.0013 600.161 14.0387 600.059 14.048 599.919H15C15.0373 600.152 15.056 600.334 15.056 600.465C15.056 600.707 14.972 600.922 14.804 601.109C14.636 601.286 14.4493 601.375 14.244 601.375H13.628C14.0947 601.664 14.4633 602.051 14.734 602.537C15.0047 603.022 15.14 603.526 15.14 604.049C15.14 604.553 15.042 605.019 14.846 605.449C14.6407 605.869 14.3607 606.237 14.006 606.555C13.6513 606.863 13.25 607.105 12.802 607.283C12.3447 607.451 11.864 607.535 11.36 607.535ZM12.438 601.543H10.338C10.0207 601.655 9.736 601.837 9.484 602.089C9.22267 602.341 9.01733 602.625 8.868 602.943C8.70933 603.251 8.63 603.559 8.63 603.867C8.63 604.231 8.70933 604.562 8.868 604.861C9.01733 605.15 9.22267 605.402 9.484 605.617C9.736 605.822 10.0253 605.981 10.352 606.093C10.6787 606.205 11.0193 606.261 11.374 606.261C11.738 606.261 12.0833 606.2 12.41 606.079C12.7367 605.948 13.026 605.771 13.278 605.547C13.53 605.313 13.726 605.047 13.866 604.749C14.006 604.441 14.076 604.109 14.076 603.755C14.076 603.531 14.034 603.302 13.95 603.069C13.866 602.826 13.7493 602.597 13.6 602.383C13.4507 602.168 13.278 601.986 13.082 601.837C12.8767 601.687 12.662 601.589 12.438 601.543ZM12.886 598.828C12.4193 598.828 12.018 598.697 11.682 598.436C11.3367 598.165 11.0707 597.797 10.884 597.33C10.6973 596.863 10.604 596.322 10.604 595.706C10.604 595.379 10.632 595.034 10.688 594.67C10.7347 594.306 10.8093 593.984 10.912 593.704H10.38C9.82 593.704 9.38133 593.872 9.064 594.208C8.73733 594.544 8.574 595.02 8.574 595.636C8.574 596.037 8.64867 596.425 8.798 596.798C8.938 597.162 9.14333 597.549 9.414 597.96L8.546 598.408C8.21933 597.932 7.97667 597.456 7.818 596.98C7.65 596.504 7.566 596.009 7.566 595.496C7.566 594.563 7.82733 593.825 8.35 593.284C8.86333 592.743 9.582 592.472 10.506 592.472H13.6C13.7493 592.472 13.8613 592.444 13.936 592.388C14.0013 592.323 14.0387 592.22 14.048 592.08H15C15.0187 592.201 15.0327 592.309 15.042 592.402C15.0513 592.486 15.056 592.556 15.056 592.612C15.056 592.901 14.9767 593.121 14.818 593.27C14.6593 593.41 14.4913 593.489 14.314 593.508L13.852 593.536C14.2627 593.853 14.58 594.269 14.804 594.782C15.028 595.295 15.14 595.804 15.14 596.308C15.14 596.793 15.042 597.227 14.846 597.61C14.6407 597.993 14.37 598.291 14.034 598.506C13.6887 598.721 13.306 598.828 12.886 598.828ZM13.404 594.068C13.2733 593.956 13.1427 593.867 13.012 593.802C12.872 593.737 12.7553 593.704 12.662 593.704H11.752C11.64 593.993 11.556 594.297 11.5 594.614C11.4347 594.931 11.402 595.244 11.402 595.552C11.402 596.177 11.528 596.686 11.78 597.078C12.0227 597.461 12.3587 597.652 12.788 597.652C13.0213 597.652 13.25 597.591 13.474 597.47C13.6887 597.339 13.866 597.153 14.006 596.91C14.146 596.658 14.216 596.35 14.216 595.986C14.216 595.603 14.1413 595.239 13.992 594.894C13.8333 594.549 13.6373 594.273 13.404 594.068ZM15 588.635L7.692 591.505V590.217L13.824 587.921L7.692 585.625V584.421L15 587.291V588.635ZM15 583.188H7.692V581.956H15V583.188ZM6.32 583.188H4.78V581.956H6.32V583.188ZM14.636 576.181C14.6827 576.284 14.7433 576.424 14.818 576.601C14.8927 576.778 14.958 576.984 15.014 577.217C15.07 577.45 15.098 577.698 15.098 577.959C15.098 578.258 15.0467 578.533 14.944 578.785C14.832 579.037 14.664 579.238 14.44 579.387C14.2067 579.536 13.9173 579.611 13.572 579.611H8.658V580.605H7.692V579.611H5.256V578.379H7.692L7.692 576.741H8.658V578.379H13.194C13.4553 578.36 13.6513 578.272 13.782 578.113C13.9033 577.954 13.964 577.768 13.964 577.553C13.964 577.31 13.922 577.086 13.838 576.881C13.754 576.676 13.6933 576.54 13.656 576.475L14.636 576.181Z" fill="#575555" fill-opacity="0.5"/>
</svg>
