<svg width="21" height="957" viewBox="0 0 21 957" fill="none" xmlns="http://www.w3.org/2000/svg">
<path d="M9.96 679.454C9.35333 679.454 8.76067 679.351 8.182 679.146C7.594 678.931 7.062 678.623 6.586 678.222C6.10067 677.811 5.718 677.312 5.438 676.724C5.14867 676.136 5.004 675.469 5.004 674.722C5.004 673.835 5.20933 673.075 5.62 672.44C6.02133 671.805 6.53933 671.334 7.174 671.026L7.818 672.02C7.398 672.216 7.06667 672.468 6.824 672.776C6.572 673.075 6.39467 673.401 6.292 673.756C6.18933 674.101 6.138 674.442 6.138 674.778C6.138 675.329 6.25 675.819 6.474 676.248C6.698 676.668 6.99667 677.023 7.37 677.312C7.74333 677.601 8.16333 677.821 8.63 677.97C9.08733 678.11 9.54933 678.18 10.016 678.18C10.5293 678.18 11.024 678.096 11.5 677.928C11.976 677.751 12.396 677.508 12.76 677.2C13.124 676.892 13.4133 676.528 13.628 676.108C13.8427 675.688 13.95 675.231 13.95 674.736C13.95 674.391 13.8893 674.036 13.768 673.672C13.6467 673.308 13.46 672.967 13.208 672.65C12.9467 672.333 12.6107 672.081 12.2 671.894L12.774 670.844C13.2687 671.049 13.6887 671.367 14.034 671.796C14.3793 672.225 14.6407 672.706 14.818 673.238C14.9953 673.761 15.084 674.279 15.084 674.792C15.084 675.473 14.9393 676.099 14.65 676.668C14.3513 677.237 13.9593 677.732 13.474 678.152C12.9793 678.563 12.4287 678.885 11.822 679.118C11.206 679.342 10.5853 679.454 9.96 679.454ZM15 663.121V664.353H10.912C10.1653 664.353 9.60533 664.488 9.232 664.759C8.85867 665.02 8.672 665.398 8.672 665.893C8.672 666.21 8.756 666.532 8.924 666.859C9.092 667.176 9.32067 667.456 9.61 667.699C9.89 667.942 10.2167 668.119 10.59 668.231H15V669.463H4.78V668.231H9.26C8.73733 667.942 8.32667 667.55 8.028 667.055C7.72 666.551 7.566 666.01 7.566 665.431C7.566 664.992 7.64533 664.628 7.804 664.339C7.95333 664.04 8.168 663.802 8.448 663.625C8.728 663.448 9.05467 663.322 9.428 663.247C9.792 663.163 10.1933 663.121 10.632 663.121H15ZM12.886 661.779C12.4193 661.779 12.018 661.649 11.682 661.387C11.3367 661.117 11.0707 660.748 10.884 660.281C10.6973 659.815 10.604 659.273 10.604 658.657C10.604 658.331 10.632 657.985 10.688 657.621C10.7347 657.257 10.8093 656.935 10.912 656.655H10.38C9.82 656.655 9.38133 656.823 9.064 657.159C8.73733 657.495 8.574 657.971 8.574 658.587C8.574 658.989 8.64867 659.376 8.798 659.749C8.938 660.113 9.14333 660.501 9.414 660.911L8.546 661.359C8.21933 660.883 7.97667 660.407 7.818 659.931C7.65 659.455 7.566 658.961 7.566 658.447C7.566 657.514 7.82733 656.777 8.35 656.235C8.86333 655.694 9.582 655.423 10.506 655.423H13.6C13.7493 655.423 13.8613 655.395 13.936 655.339C14.0013 655.274 14.0387 655.171 14.048 655.031H15C15.0187 655.153 15.0327 655.26 15.042 655.353C15.0513 655.437 15.056 655.507 15.056 655.563C15.056 655.853 14.9767 656.072 14.818 656.221C14.6593 656.361 14.4913 656.441 14.314 656.459L13.852 656.487C14.2627 656.805 14.58 657.22 14.804 657.733C15.028 658.247 15.14 658.755 15.14 659.259C15.14 659.745 15.042 660.179 14.846 660.561C14.6407 660.944 14.37 661.243 14.034 661.457C13.6887 661.672 13.306 661.779 12.886 661.779ZM13.404 657.019C13.2733 656.907 13.1427 656.819 13.012 656.753C12.872 656.688 12.7553 656.655 12.662 656.655H11.752C11.64 656.945 11.556 657.248 11.5 657.565C11.4347 657.883 11.402 658.195 11.402 658.503C11.402 659.129 11.528 659.637 11.78 660.029C12.0227 660.412 12.3587 660.603 12.788 660.603C13.0213 660.603 13.25 660.543 13.474 660.421C13.6887 660.291 13.866 660.104 14.006 659.861C14.146 659.609 14.216 659.301 14.216 658.937C14.216 658.555 14.1413 658.191 13.992 657.845C13.8333 657.5 13.6373 657.225 13.404 657.019ZM15 647.111V648.343H10.912C10.1373 648.343 9.57267 648.465 9.218 648.707C8.854 648.941 8.672 649.3 8.672 649.785C8.672 650.121 8.756 650.457 8.924 650.793C9.092 651.12 9.32067 651.414 9.61 651.675C9.89 651.927 10.2167 652.109 10.59 652.221H15V653.453H7.692V652.333H9.26C8.91467 652.137 8.616 651.885 8.364 651.577C8.112 651.269 7.916 650.919 7.776 650.527C7.636 650.135 7.566 649.725 7.566 649.295C7.566 648.875 7.64533 648.525 7.804 648.245C7.95333 647.956 8.168 647.732 8.448 647.573C8.71867 647.405 9.04067 647.289 9.414 647.223C9.78733 647.149 10.1933 647.111 10.632 647.111H15ZM15.084 642.283C15.084 642.778 14.986 643.235 14.79 643.655C14.5847 644.066 14.3093 644.421 13.964 644.719C13.6093 645.018 13.208 645.251 12.76 645.419C12.312 645.578 11.8453 645.657 11.36 645.657C10.8467 645.657 10.3613 645.578 9.904 645.419C9.44667 645.251 9.04533 645.018 8.7 644.719C8.34533 644.411 8.07 644.052 7.874 643.641C7.66867 643.231 7.566 642.773 7.566 642.269C7.566 641.663 7.71533 641.135 8.014 640.687C8.31267 640.23 8.69067 639.847 9.148 639.539H7.692V638.447H14.916C15.6067 638.447 16.19 638.615 16.666 638.951C17.142 639.278 17.5013 639.726 17.744 640.295C17.996 640.855 18.122 641.481 18.122 642.171C18.122 642.993 17.9773 643.665 17.688 644.187C17.3987 644.71 17.0067 645.144 16.512 645.489L15.882 644.775C16.3113 644.486 16.6333 644.113 16.848 643.655C17.0627 643.189 17.17 642.694 17.17 642.171C17.17 641.723 17.086 641.313 16.918 640.939C16.7593 640.557 16.512 640.253 16.176 640.029C15.84 639.796 15.42 639.679 14.916 639.679H13.628C14.076 639.95 14.4307 640.323 14.692 640.799C14.9533 641.266 15.084 641.761 15.084 642.283ZM14.076 641.905C14.076 641.644 14.0293 641.392 13.936 641.149C13.8427 640.907 13.7213 640.683 13.572 640.477C13.4133 640.272 13.236 640.099 13.04 639.959C12.844 639.819 12.6433 639.726 12.438 639.679H10.338C10.002 639.81 9.708 639.997 9.456 640.239C9.19467 640.482 8.994 640.757 8.854 641.065C8.70467 641.373 8.63 641.691 8.63 642.017C8.63 642.391 8.70933 642.727 8.868 643.025C9.02667 643.315 9.24133 643.562 9.512 643.767C9.77333 643.973 10.0673 644.131 10.394 644.243C10.7207 644.355 11.052 644.411 11.388 644.411C11.752 644.411 12.0973 644.346 12.424 644.215C12.7413 644.085 13.026 643.907 13.278 643.683C13.53 643.459 13.726 643.193 13.866 642.885C14.006 642.577 14.076 642.251 14.076 641.905ZM15.14 633.225C15.14 633.776 15.042 634.28 14.846 634.737C14.6407 635.185 14.3653 635.577 14.02 635.913C13.6653 636.24 13.2593 636.496 12.802 636.683C12.3447 636.86 11.8593 636.949 11.346 636.949C10.6553 636.949 10.0253 636.79 9.456 636.473C8.88667 636.156 8.42933 635.717 8.084 635.157C7.73867 634.588 7.566 633.939 7.566 633.211C7.566 632.474 7.74333 631.834 8.098 631.293C8.44333 630.742 8.90067 630.318 9.47 630.019C10.03 629.711 10.6367 629.557 11.29 629.557C11.3833 629.557 11.4767 629.562 11.57 629.571C11.654 629.571 11.7193 629.576 11.766 629.585V635.647C12.242 635.61 12.6667 635.479 13.04 635.255C13.404 635.022 13.6933 634.723 13.908 634.359C14.1133 633.995 14.216 633.603 14.216 633.183C14.216 632.735 14.104 632.315 13.88 631.923C13.656 631.522 13.362 631.246 12.998 631.097L13.292 630.033C13.6467 630.192 13.964 630.43 14.244 630.747C14.524 631.055 14.7433 631.424 14.902 631.853C15.0607 632.273 15.14 632.73 15.14 633.225ZM10.912 635.689V630.705C10.436 630.742 10.016 630.878 9.652 631.111C9.288 631.344 9.00333 631.643 8.798 632.007C8.59267 632.371 8.49 632.772 8.49 633.211C8.49 633.64 8.59267 634.037 8.798 634.401C9.00333 634.765 9.288 635.064 9.652 635.297C10.016 635.521 10.436 635.652 10.912 635.689ZM15.07 620.419C15.07 621.119 14.93 621.753 14.65 622.323C14.37 622.892 13.992 623.387 13.516 623.807C13.0307 624.217 12.4893 624.535 11.892 624.759C11.2853 624.983 10.6647 625.095 10.03 625.095C9.36733 625.095 8.73733 624.978 8.14 624.745C7.53333 624.502 6.99667 624.171 6.53 623.751C6.054 623.321 5.68067 622.822 5.41 622.253C5.13 621.683 4.99 621.063 4.99 620.391C4.99 619.691 5.13467 619.056 5.424 618.487C5.71333 617.917 6.10067 617.427 6.586 617.017C7.07133 616.606 7.61267 616.289 8.21 616.065C8.80733 615.841 9.41867 615.729 10.044 615.729C10.7067 615.729 11.3413 615.845 11.948 616.079C12.5453 616.312 13.082 616.643 13.558 617.073C14.0247 617.493 14.3933 617.987 14.664 618.557C14.9347 619.126 15.07 619.747 15.07 620.419ZM10.03 623.821C10.534 623.821 11.024 623.741 11.5 623.583C11.9667 623.415 12.382 623.181 12.746 622.883C13.11 622.584 13.3993 622.225 13.614 621.805C13.8287 621.385 13.936 620.918 13.936 620.405C13.936 619.873 13.824 619.397 13.6 618.977C13.376 618.557 13.0773 618.202 12.704 617.913C12.3307 617.614 11.9107 617.39 11.444 617.241C10.9773 617.082 10.506 617.003 10.03 617.003C9.526 617.003 9.04067 617.087 8.574 617.255C8.10733 617.413 7.692 617.647 7.328 617.955C6.95467 618.253 6.66533 618.613 6.46 619.033C6.24533 619.443 6.138 619.901 6.138 620.405C6.138 620.937 6.25 621.413 6.474 621.833C6.68867 622.253 6.98267 622.612 7.356 622.911C7.72933 623.2 8.14933 623.424 8.616 623.583C9.07333 623.741 9.54467 623.821 10.03 623.821ZM15 613.782H8.658V614.776H7.692L7.692 613.782H7.538C6.94067 613.782 6.42733 613.693 5.998 613.516C5.55933 613.329 5.22333 613.068 4.99 612.732C4.75667 612.396 4.64 611.999 4.64 611.542C4.64 611.253 4.682 610.968 4.766 610.688C4.84067 610.408 4.948 610.156 5.088 609.932L5.998 610.24C5.90467 610.371 5.83 610.534 5.774 610.73C5.718 610.917 5.69 611.103 5.69 611.29C5.69 611.691 5.84867 612.004 6.166 612.228C6.474 612.443 6.91733 612.55 7.496 612.55H7.692V610.604H8.658V612.55H15V613.782ZM7.384 604.693H15V605.953H5.06V604.889L12.83 598.813H5.074V597.553H15V598.701L7.384 604.693ZM12.886 596.017C12.4193 596.017 12.018 595.887 11.682 595.625C11.3367 595.355 11.0707 594.986 10.884 594.519C10.6973 594.053 10.604 593.511 10.604 592.895C10.604 592.569 10.632 592.223 10.688 591.859C10.7347 591.495 10.8093 591.173 10.912 590.893H10.38C9.82 590.893 9.38133 591.061 9.064 591.397C8.73733 591.733 8.574 592.209 8.574 592.825C8.574 593.227 8.64867 593.614 8.798 593.987C8.938 594.351 9.14333 594.739 9.414 595.149L8.546 595.597C8.21933 595.121 7.97667 594.645 7.818 594.169C7.65 593.693 7.566 593.199 7.566 592.685C7.566 591.752 7.82733 591.015 8.35 590.473C8.86333 589.932 9.582 589.661 10.506 589.661H13.6C13.7493 589.661 13.8613 589.633 13.936 589.577C14.0013 589.512 14.0387 589.409 14.048 589.269H15C15.0187 589.391 15.0327 589.498 15.042 589.591C15.0513 589.675 15.056 589.745 15.056 589.801C15.056 590.091 14.9767 590.31 14.818 590.459C14.6593 590.599 14.4913 590.679 14.314 590.697L13.852 590.725C14.2627 591.043 14.58 591.458 14.804 591.971C15.028 592.485 15.14 592.993 15.14 593.497C15.14 593.983 15.042 594.417 14.846 594.799C14.6407 595.182 14.37 595.481 14.034 595.695C13.6887 595.91 13.306 596.017 12.886 596.017ZM13.404 591.257C13.2733 591.145 13.1427 591.057 13.012 590.991C12.872 590.926 12.7553 590.893 12.662 590.893H11.752C11.64 591.183 11.556 591.486 11.5 591.803C11.4347 592.121 11.402 592.433 11.402 592.742C11.402 593.367 11.528 593.875 11.78 594.267C12.0227 594.65 12.3587 594.841 12.788 594.841C13.0213 594.841 13.25 594.781 13.474 594.659C13.6887 594.529 13.866 594.342 14.006 594.099C14.146 593.847 14.216 593.539 14.216 593.175C14.216 592.793 14.1413 592.429 13.992 592.083C13.8333 591.738 13.6373 591.463 13.404 591.257ZM15 576.674V577.906H10.912C10.1467 577.906 9.582 578.032 9.218 578.284C8.854 578.526 8.672 578.89 8.672 579.376C8.672 579.87 8.854 580.318 9.218 580.72C9.57267 581.121 10.0347 581.406 10.604 581.574H15V582.806H10.912C10.1373 582.806 9.57267 582.927 9.218 583.17C8.854 583.412 8.672 583.776 8.672 584.262C8.672 584.747 8.84933 585.195 9.204 585.606C9.54933 586.007 10.0113 586.292 10.59 586.46H15V587.692H7.692V586.572H9.26C8.71867 586.273 8.30333 585.886 8.014 585.41C7.71533 584.934 7.566 584.397 7.566 583.8C7.566 583.193 7.734 582.708 8.07 582.344C8.39667 581.98 8.82133 581.756 9.344 581.672C8.76533 581.345 8.32667 580.948 8.028 580.482C7.72 580.015 7.566 579.483 7.566 578.886C7.566 578.466 7.64533 578.116 7.804 577.836C7.95333 577.546 8.168 577.318 8.448 577.15C8.71867 576.982 9.04067 576.86 9.414 576.786C9.78733 576.711 10.1933 576.674 10.632 576.674H15ZM15.14 571.524C15.14 572.075 15.042 572.579 14.846 573.036C14.6407 573.484 14.3653 573.876 14.02 574.212C13.6653 574.539 13.2593 574.795 12.802 574.982C12.3447 575.159 11.8593 575.248 11.346 575.248C10.6553 575.248 10.0253 575.089 9.456 574.772C8.88667 574.455 8.42933 574.016 8.084 573.456C7.73867 572.887 7.566 572.238 7.566 571.51C7.566 570.773 7.74333 570.133 8.098 569.592C8.44333 569.041 8.90067 568.617 9.47 568.318C10.03 568.01 10.6367 567.856 11.29 567.856C11.3833 567.856 11.4767 567.861 11.57 567.87C11.654 567.87 11.7193 567.875 11.766 567.884V573.946C12.242 573.909 12.6667 573.778 13.04 573.554C13.404 573.321 13.6933 573.022 13.908 572.658C14.1133 572.294 14.216 571.902 14.216 571.482C14.216 571.034 14.104 570.614 13.88 570.222C13.656 569.821 13.362 569.545 12.998 569.396L13.292 568.332C13.6467 568.491 13.964 568.729 14.244 569.046C14.524 569.354 14.7433 569.723 14.902 570.152C15.0607 570.572 15.14 571.029 15.14 571.524ZM10.912 573.988V569.004C10.436 569.041 10.016 569.177 9.652 569.41C9.288 569.643 9.00333 569.942 8.798 570.306C8.59267 570.67 8.49 571.071 8.49 571.51C8.49 571.939 8.59267 572.336 8.798 572.7C9.00333 573.064 9.288 573.363 9.652 573.596C10.016 573.82 10.436 573.951 10.912 573.988Z" fill="#575555" fill-opacity="0.5"/>
<line x1="11" y1="559" x2="11" y2="536" stroke="#9B9B9B" stroke-width="2"/>
<line x1="11" y1="709" x2="11" y2="686" stroke="#9B9B9B" stroke-width="2"/>
<path d="M6.446 459.586L6.446 462.89H15V464.472H6.446V467.79H5.06L5.06 459.586H6.446ZM15 451.883V453.423H10.898C10.2353 453.423 9.74067 453.544 9.414 453.787C9.08733 454.03 8.924 454.37 8.924 454.809C8.924 455.08 8.99867 455.36 9.148 455.649C9.29733 455.938 9.50267 456.195 9.764 456.419C10.016 456.643 10.31 456.806 10.646 456.909H15V458.449H4.78V456.909H9.148C8.65333 456.629 8.266 456.246 7.986 455.761C7.69667 455.276 7.552 454.753 7.552 454.193C7.552 453.736 7.63133 453.358 7.79 453.059C7.94867 452.76 8.168 452.527 8.448 452.359C8.71867 452.182 9.036 452.06 9.4 451.995C9.75467 451.92 10.1327 451.883 10.534 451.883H15ZM15.14 446.778C15.14 447.347 15.042 447.865 14.846 448.332C14.6407 448.789 14.3653 449.186 14.02 449.522C13.6653 449.858 13.264 450.119 12.816 450.306C12.3587 450.483 11.8733 450.572 11.36 450.572C10.6693 450.572 10.0393 450.413 9.47 450.096C8.89133 449.778 8.42933 449.335 8.084 448.766C7.72933 448.196 7.552 447.529 7.552 446.764C7.552 445.998 7.72933 445.34 8.084 444.79C8.42933 444.23 8.88667 443.796 9.456 443.488C10.0253 443.18 10.6367 443.026 11.29 443.026C11.402 443.026 11.5093 443.03 11.612 443.04C11.7053 443.049 11.7847 443.058 11.85 443.068V448.934C12.2793 448.906 12.6573 448.789 12.984 448.584C13.3013 448.369 13.5533 448.098 13.74 447.772C13.9173 447.445 14.006 447.095 14.006 446.722C14.006 446.311 13.9033 445.924 13.698 445.56C13.4927 445.186 13.222 444.934 12.886 444.804L13.264 443.488C13.6187 443.646 13.9407 443.889 14.23 444.216C14.51 444.533 14.734 444.911 14.902 445.35C15.0607 445.788 15.14 446.264 15.14 446.778ZM10.828 448.976V444.552C10.408 444.58 10.0393 444.701 9.722 444.916C9.39533 445.121 9.14333 445.387 8.966 445.714C8.77933 446.031 8.686 446.386 8.686 446.778C8.686 447.16 8.77933 447.515 8.966 447.842C9.14333 448.159 9.39533 448.42 9.722 448.626C10.0393 448.831 10.408 448.948 10.828 448.976ZM13.614 431.296H15V438.114H5.06L5.06 431.422H6.446L6.446 436.546H9.274V432.108H10.576V436.546H13.614V431.296ZM15.14 425.772C15.14 426.36 15 426.878 14.72 427.326C14.44 427.774 14.076 428.128 13.628 428.39H17.982V429.93H7.678V428.572H8.994C8.55533 428.292 8.20533 427.928 7.944 427.48C7.68267 427.032 7.552 426.532 7.552 425.982C7.552 425.478 7.65467 425.016 7.86 424.596C8.056 424.176 8.33133 423.812 8.686 423.504C9.04067 423.196 9.44667 422.958 9.904 422.79C10.352 422.612 10.828 422.524 11.332 422.524C12.032 422.524 12.6713 422.664 13.25 422.944C13.8287 423.214 14.2907 423.597 14.636 424.092C14.972 424.577 15.14 425.137 15.14 425.772ZM13.824 426.276C13.824 425.949 13.754 425.655 13.614 425.394C13.474 425.123 13.2873 424.894 13.054 424.708C12.8207 424.512 12.5547 424.362 12.256 424.26C11.9573 424.157 11.6493 424.106 11.332 424.106C10.996 424.106 10.6787 424.162 10.38 424.274C10.0813 424.386 9.82 424.549 9.596 424.764C9.372 424.969 9.19467 425.212 9.064 425.492C8.93333 425.762 8.868 426.061 8.868 426.388C8.868 426.584 8.90533 426.789 8.98 427.004C9.05467 427.218 9.15733 427.419 9.288 427.606C9.41867 427.792 9.57267 427.956 9.75 428.096C9.92733 428.236 10.114 428.334 10.31 428.39H12.228C12.5267 428.259 12.7973 428.086 13.04 427.872C13.2733 427.657 13.4647 427.41 13.614 427.13C13.754 426.85 13.824 426.565 13.824 426.276ZM15 421.139H7.678V419.598H15V421.139ZM6.474 421.139H4.78V419.598H6.474V421.139ZM14.622 413.674C14.6873 413.805 14.7573 413.968 14.832 414.164C14.9067 414.36 14.972 414.584 15.028 414.836C15.084 415.079 15.112 415.331 15.112 415.592C15.112 415.909 15.056 416.203 14.944 416.474C14.832 416.745 14.6547 416.964 14.412 417.132C14.16 417.291 13.838 417.37 13.446 417.37H8.868V418.336H7.678V417.37H5.27L5.27 415.83H7.678V414.234H8.868V415.83H12.956C13.208 415.811 13.3947 415.732 13.516 415.592C13.6373 415.443 13.698 415.261 13.698 415.046C13.698 414.831 13.6607 414.626 13.586 414.43C13.5113 414.234 13.4507 414.089 13.404 413.996L14.622 413.674ZM15.14 409.413C15.14 409.992 15.042 410.51 14.846 410.967C14.6407 411.424 14.3607 411.821 14.006 412.157C13.6513 412.484 13.25 412.736 12.802 412.913C12.3447 413.09 11.8593 413.179 11.346 413.179C10.8327 413.179 10.3473 413.09 9.89 412.913C9.43267 412.736 9.03133 412.484 8.686 412.157C8.33133 411.821 8.056 411.424 7.86 410.967C7.65467 410.5 7.552 409.982 7.552 409.413C7.552 408.844 7.65467 408.33 7.86 407.873C8.056 407.406 8.33133 407.01 8.686 406.683C9.03133 406.347 9.43267 406.09 9.89 405.913C10.3473 405.736 10.8327 405.647 11.346 405.647C11.8593 405.647 12.3447 405.736 12.802 405.913C13.25 406.09 13.6513 406.347 14.006 406.683C14.3607 407.01 14.6407 407.406 14.846 407.873C15.042 408.33 15.14 408.844 15.14 409.413ZM11.36 411.597C11.8267 411.597 12.2467 411.499 12.62 411.303C12.9933 411.107 13.2873 410.846 13.502 410.519C13.7167 410.192 13.824 409.824 13.824 409.413C13.824 409.012 13.7167 408.648 13.502 408.321C13.278 407.985 12.9793 407.719 12.606 407.523C12.2233 407.327 11.8033 407.229 11.346 407.229C10.8793 407.229 10.4593 407.327 10.086 407.523C9.71267 407.719 9.41867 407.985 9.204 408.321C8.98 408.648 8.868 409.012 8.868 409.413C8.868 409.824 8.98 410.192 9.204 410.519C9.428 410.846 9.72667 411.107 10.1 411.303C10.464 411.499 10.884 411.597 11.36 411.597ZM15 393.081V394.621H10.898C10.2167 394.621 9.71733 394.733 9.4 394.957C9.08267 395.181 8.924 395.508 8.924 395.937C8.924 396.366 9.08733 396.768 9.414 397.141C9.73133 397.505 10.1467 397.762 10.66 397.911H15V399.451H10.898C10.2167 399.451 9.71733 399.563 9.4 399.787C9.08267 400.011 8.924 400.333 8.924 400.753C8.924 401.182 9.08267 401.584 9.4 401.957C9.71733 402.321 10.1327 402.582 10.646 402.741H15V404.281H7.678V402.881H9.148C8.63467 402.592 8.24267 402.214 7.972 401.747C7.692 401.271 7.552 400.73 7.552 400.123C7.552 399.516 7.71067 399.04 8.028 398.695C8.34533 398.34 8.742 398.121 9.218 398.037C8.67667 397.72 8.266 397.332 7.986 396.875C7.69667 396.408 7.552 395.876 7.552 395.279C7.552 394.85 7.63133 394.49 7.79 394.201C7.94867 393.912 8.168 393.688 8.448 393.529C8.71867 393.37 9.036 393.258 9.4 393.193C9.75467 393.118 10.1327 393.081 10.534 393.081H15ZM15.14 387.988C15.14 388.558 15.042 389.076 14.846 389.542C14.6407 390 14.3653 390.396 14.02 390.732C13.6653 391.068 13.264 391.33 12.816 391.516C12.3587 391.694 11.8733 391.782 11.36 391.782C10.6693 391.782 10.0393 391.624 9.47 391.306C8.89133 390.989 8.42933 390.546 8.084 389.976C7.72933 389.407 7.552 388.74 7.552 387.974C7.552 387.209 7.72933 386.551 8.084 386C8.42933 385.44 8.88667 385.006 9.456 384.698C10.0253 384.39 10.6367 384.236 11.29 384.236C11.402 384.236 11.5093 384.241 11.612 384.25C11.7053 384.26 11.7847 384.269 11.85 384.278V390.144C12.2793 390.116 12.6573 390 12.984 389.794C13.3013 389.58 13.5533 389.309 13.74 388.982C13.9173 388.656 14.006 388.306 14.006 387.932C14.006 387.522 13.9033 387.134 13.698 386.77C13.4927 386.397 13.222 386.145 12.886 386.014L13.264 384.698C13.6187 384.857 13.9407 385.1 14.23 385.426C14.51 385.744 14.734 386.122 14.902 386.56C15.0607 386.999 15.14 387.475 15.14 387.988ZM10.828 390.186V385.762C10.408 385.79 10.0393 385.912 9.722 386.126C9.39533 386.332 9.14333 386.598 8.966 386.924C8.77933 387.242 8.686 387.596 8.686 387.988C8.686 388.371 8.77933 388.726 8.966 389.052C9.14333 389.37 9.39533 389.631 9.722 389.836C10.0393 390.042 10.408 390.158 10.828 390.186ZM7.972 377.757H15V379.325H5.06V378.037L12.242 372.409H5.074V370.827H15V372.199L7.972 377.757ZM15.14 365.594C15.14 366.163 15.042 366.681 14.846 367.148C14.6407 367.605 14.3653 368.002 14.02 368.338C13.6653 368.674 13.264 368.935 12.816 369.122C12.3587 369.299 11.8733 369.388 11.36 369.388C10.6693 369.388 10.0393 369.229 9.47 368.912C8.89133 368.595 8.42933 368.151 8.084 367.582C7.72933 367.013 7.552 366.345 7.552 365.58C7.552 364.815 7.72933 364.157 8.084 363.606C8.42933 363.046 8.88667 362.612 9.456 362.304C10.0253 361.996 10.6367 361.842 11.29 361.842C11.402 361.842 11.5093 361.847 11.612 361.856C11.7053 361.865 11.7847 361.875 11.85 361.884L11.85 367.75C12.2793 367.722 12.6573 367.605 12.984 367.4C13.3013 367.185 13.5533 366.915 13.74 366.588C13.9173 366.261 14.006 365.911 14.006 365.538C14.006 365.127 13.9033 364.74 13.698 364.376C13.4927 364.003 13.222 363.751 12.886 363.62L13.264 362.304C13.6187 362.463 13.9407 362.705 14.23 363.032C14.51 363.349 14.734 363.727 14.902 364.166C15.0607 364.605 15.14 365.081 15.14 365.594ZM10.828 367.792L10.828 363.368C10.408 363.396 10.0393 363.517 9.722 363.732C9.39533 363.937 9.14333 364.203 8.966 364.53C8.77933 364.847 8.686 365.202 8.686 365.594C8.686 365.977 8.77933 366.331 8.966 366.658C9.14333 366.975 9.39533 367.237 9.722 367.442C10.0393 367.647 10.408 367.764 10.828 367.792ZM7.678 351.663V350.193L15 353.273V354.589L11.696 355.905L15 357.221V358.537L7.678 361.631V360.161L13.502 357.809L10.8 356.773L7.692 358.033V356.731L9.974 355.905L7.692 355.093V353.791L10.8 355.037L13.502 354.001L7.678 351.663ZM15.14 346.743C15.14 347.359 15.042 347.943 14.846 348.493C14.6407 349.044 14.3373 349.515 13.936 349.907L12.9 349.333C13.2733 348.913 13.544 348.493 13.712 348.073C13.88 347.644 13.964 347.219 13.964 346.799C13.964 346.37 13.8847 346.02 13.726 345.749C13.558 345.479 13.3153 345.343 12.998 345.343C12.7647 345.343 12.592 345.413 12.48 345.553C12.368 345.693 12.27 345.899 12.186 346.169C12.102 346.431 12.0087 346.748 11.906 347.121C11.7473 347.644 11.584 348.083 11.416 348.437C11.2387 348.792 11.024 349.058 10.772 349.235C10.52 349.413 10.198 349.501 9.806 349.501C9.33 349.501 8.924 349.38 8.588 349.137C8.252 348.895 7.99533 348.559 7.818 348.129C7.64067 347.691 7.552 347.187 7.552 346.617C7.552 346.085 7.636 345.595 7.804 345.147C7.96267 344.69 8.21467 344.289 8.56 343.943L9.582 344.601C9.28333 344.928 9.064 345.264 8.924 345.609C8.784 345.945 8.714 346.309 8.714 346.701C8.714 346.925 8.742 347.14 8.798 347.345C8.84467 347.551 8.938 347.723 9.078 347.863C9.20867 347.994 9.39533 348.059 9.638 348.059C9.834 348.059 9.99267 348.003 10.114 347.891C10.2353 347.779 10.338 347.611 10.422 347.387C10.506 347.163 10.5993 346.888 10.702 346.561C10.87 345.992 11.038 345.507 11.206 345.105C11.3647 344.704 11.5747 344.396 11.836 344.181C12.088 343.957 12.438 343.845 12.886 343.845C13.5953 343.845 14.1507 344.111 14.552 344.643C14.944 345.166 15.14 345.866 15.14 346.743Z" fill="black"/>
<path d="M15 925.81H5.06V924.55H13.88V919.006H15V925.81ZM15.14 914.748C15.14 915.298 15.042 915.798 14.846 916.246C14.6407 916.694 14.3653 917.081 14.02 917.408C13.6653 917.734 13.2593 917.986 12.802 918.164C12.3447 918.341 11.864 918.43 11.36 918.43C10.8467 918.43 10.3613 918.341 9.904 918.164C9.44667 917.986 9.04533 917.734 8.7 917.408C8.34533 917.081 8.07 916.694 7.874 916.246C7.66867 915.788 7.566 915.289 7.566 914.748C7.566 914.197 7.66867 913.698 7.874 913.25C8.07 912.802 8.34533 912.414 8.7 912.088C9.04533 911.752 9.44667 911.495 9.904 911.318C10.3613 911.14 10.8467 911.052 11.36 911.052C11.864 911.052 12.3447 911.14 12.802 911.318C13.2593 911.495 13.6653 911.747 14.02 912.074C14.3653 912.4 14.6407 912.792 14.846 913.25C15.042 913.698 15.14 914.197 15.14 914.748ZM11.374 917.17C11.878 917.17 12.3353 917.062 12.746 916.848C13.1567 916.624 13.4833 916.33 13.726 915.966C13.9593 915.602 14.076 915.196 14.076 914.748C14.076 914.3 13.9547 913.894 13.712 913.53C13.4693 913.156 13.1427 912.862 12.732 912.648C12.312 912.424 11.85 912.312 11.346 912.312C10.842 912.312 10.3847 912.424 9.974 912.648C9.56333 912.862 9.23667 913.156 8.994 913.53C8.75133 913.894 8.63 914.3 8.63 914.748C8.63 915.196 8.756 915.602 9.008 915.966C9.25067 916.33 9.57733 916.624 9.988 916.848C10.3987 917.062 10.8607 917.17 11.374 917.17ZM15.14 907.053C15.14 907.659 15.042 908.229 14.846 908.761C14.6407 909.293 14.3373 909.75 13.936 910.133L13.068 909.657C13.46 909.237 13.74 908.817 13.908 908.397C14.076 907.977 14.16 907.547 14.16 907.109C14.16 906.605 14.0667 906.194 13.88 905.877C13.684 905.559 13.3993 905.401 13.026 905.401C12.7553 905.401 12.5547 905.485 12.424 905.653C12.2933 905.811 12.186 906.04 12.102 906.339C12.0087 906.637 11.906 906.992 11.794 907.403C11.6447 907.907 11.486 908.331 11.318 908.677C11.15 909.022 10.94 909.283 10.688 909.461C10.436 909.638 10.1187 909.727 9.736 909.727C9.26933 909.727 8.87733 909.605 8.56 909.363C8.23333 909.12 7.986 908.789 7.818 908.369C7.65 907.939 7.566 907.454 7.566 906.913C7.566 906.371 7.65 905.881 7.818 905.443C7.986 905.004 8.23333 904.626 8.56 904.309L9.414 904.869C9.11533 905.158 8.896 905.475 8.756 905.821C8.60667 906.166 8.532 906.553 8.532 906.983C8.532 907.235 8.56467 907.482 8.63 907.725C8.686 907.967 8.79333 908.168 8.952 908.327C9.10133 908.485 9.316 908.565 9.596 908.565C9.82933 908.565 10.016 908.504 10.156 908.383C10.2867 908.252 10.3987 908.065 10.492 907.823C10.5853 907.571 10.688 907.267 10.8 906.913C10.9587 906.362 11.1173 905.886 11.276 905.485C11.4347 905.074 11.64 904.757 11.892 904.533C12.144 904.309 12.494 904.197 12.942 904.197C13.6327 904.197 14.174 904.458 14.566 904.981C14.9487 905.503 15.14 906.194 15.14 907.053ZM15.14 900.217C15.14 900.823 15.042 901.393 14.846 901.925C14.6407 902.457 14.3373 902.914 13.936 903.297L13.068 902.821C13.46 902.401 13.74 901.981 13.908 901.561C14.076 901.141 14.16 900.711 14.16 900.273C14.16 899.769 14.0667 899.358 13.88 899.041C13.684 898.723 13.3993 898.565 13.026 898.565C12.7553 898.565 12.5547 898.649 12.424 898.817C12.2933 898.975 12.186 899.204 12.102 899.503C12.0087 899.801 11.906 900.156 11.794 900.567C11.6447 901.071 11.486 901.495 11.318 901.841C11.15 902.186 10.94 902.447 10.688 902.625C10.436 902.802 10.1187 902.891 9.736 902.891C9.26933 902.891 8.87733 902.769 8.56 902.527C8.23333 902.284 7.986 901.953 7.818 901.533C7.65 901.103 7.566 900.618 7.566 900.077C7.566 899.535 7.65 899.045 7.818 898.607C7.986 898.168 8.23333 897.79 8.56 897.473L9.414 898.033C9.11533 898.322 8.896 898.639 8.756 898.985C8.60667 899.33 8.532 899.717 8.532 900.147C8.532 900.399 8.56467 900.646 8.63 900.889C8.686 901.131 8.79333 901.332 8.952 901.491C9.10133 901.649 9.316 901.729 9.596 901.729C9.82933 901.729 10.016 901.668 10.156 901.547C10.2867 901.416 10.3987 901.229 10.492 900.987C10.5853 900.735 10.688 900.431 10.8 900.077C10.9587 899.526 11.1173 899.05 11.276 898.649C11.4347 898.238 11.64 897.921 11.892 897.697C12.144 897.473 12.494 897.361 12.942 897.361C13.6327 897.361 14.174 897.622 14.566 898.145C14.9487 898.667 15.14 899.358 15.14 900.217ZM15.07 888.118C15.07 888.818 14.93 889.453 14.65 890.022C14.37 890.591 13.992 891.086 13.516 891.506C13.0307 891.917 12.4893 892.234 11.892 892.458C11.2853 892.682 10.6647 892.794 10.03 892.794C9.36733 892.794 8.73733 892.677 8.14 892.444C7.53333 892.201 6.99667 891.87 6.53 891.45C6.054 891.021 5.68067 890.521 5.41 889.952C5.13 889.383 4.99 888.762 4.99 888.09C4.99 887.39 5.13467 886.755 5.424 886.186C5.71333 885.617 6.10067 885.127 6.586 884.716C7.07133 884.305 7.61267 883.988 8.21 883.764C8.80733 883.54 9.41867 883.428 10.044 883.428C10.7067 883.428 11.3413 883.545 11.948 883.778C12.5453 884.011 13.082 884.343 13.558 884.772C14.0247 885.192 14.3933 885.687 14.664 886.256C14.9347 886.825 15.07 887.446 15.07 888.118ZM10.03 891.52C10.534 891.52 11.024 891.441 11.5 891.282C11.9667 891.114 12.382 890.881 12.746 890.582C13.11 890.283 13.3993 889.924 13.614 889.504C13.8287 889.084 13.936 888.617 13.936 888.104C13.936 887.572 13.824 887.096 13.6 886.676C13.376 886.256 13.0773 885.901 12.704 885.612C12.3307 885.313 11.9107 885.089 11.444 884.94C10.9773 884.781 10.506 884.702 10.03 884.702C9.526 884.702 9.04067 884.786 8.574 884.954C8.10733 885.113 7.692 885.346 7.328 885.654C6.95467 885.953 6.66533 886.312 6.46 886.732C6.24533 887.143 6.138 887.6 6.138 888.104C6.138 888.636 6.25 889.112 6.474 889.532C6.68867 889.952 6.98267 890.311 7.356 890.61C7.72933 890.899 8.14933 891.123 8.616 891.282C9.07333 891.441 9.54467 891.52 10.03 891.52ZM15 881.481H8.658V882.475H7.692V881.481H7.538C6.94067 881.481 6.42733 881.393 5.998 881.215C5.55933 881.029 5.22333 880.767 4.99 880.431C4.75667 880.095 4.64 879.699 4.64 879.241C4.64 878.952 4.682 878.667 4.766 878.387C4.84067 878.107 4.948 877.855 5.088 877.631L5.998 877.939C5.90467 878.07 5.83 878.233 5.774 878.429C5.718 878.616 5.69 878.803 5.69 878.989C5.69 879.391 5.84867 879.703 6.166 879.927C6.474 880.142 6.91733 880.249 7.496 880.249H7.692V878.303H8.658V880.249H15V881.481ZM15 873.652H5.06V870.208C5.06 869.144 5.284 868.257 5.732 867.548C6.17067 866.829 6.768 866.292 7.524 865.938C8.27067 865.583 9.10133 865.406 10.016 865.406C11.024 865.406 11.9013 865.602 12.648 865.994C13.3947 866.386 13.9733 866.941 14.384 867.66C14.7947 868.378 15 869.228 15 870.208V873.652ZM10.016 866.68C9.26933 866.68 8.60667 866.82 8.028 867.1C7.44933 867.37 6.99667 867.767 6.67 868.29C6.34333 868.812 6.18 869.452 6.18 870.208V872.392H13.88V870.208C13.88 869.442 13.712 868.798 13.376 868.276C13.0307 867.753 12.5687 867.356 11.99 867.086C11.402 866.815 10.744 866.68 10.016 866.68ZM15.14 860.634C15.14 861.185 15.042 861.684 14.846 862.132C14.6407 862.58 14.3653 862.968 14.02 863.294C13.6653 863.621 13.2593 863.873 12.802 864.05C12.3447 864.228 11.864 864.316 11.36 864.316C10.8467 864.316 10.3613 864.228 9.904 864.05C9.44667 863.873 9.04533 863.621 8.7 863.294C8.34533 862.968 8.07 862.58 7.874 862.132C7.66867 861.675 7.566 861.176 7.566 860.634C7.566 860.084 7.66867 859.584 7.874 859.136C8.07 858.688 8.34533 858.301 8.7 857.974C9.04533 857.638 9.44667 857.382 9.904 857.204C10.3613 857.027 10.8467 856.938 11.36 856.938C11.864 856.938 12.3447 857.027 12.802 857.204C13.2593 857.382 13.6653 857.634 14.02 857.96C14.3653 858.287 14.6407 858.679 14.846 859.136C15.042 859.584 15.14 860.084 15.14 860.634ZM11.374 863.056C11.878 863.056 12.3353 862.949 12.746 862.734C13.1567 862.51 13.4833 862.216 13.726 861.852C13.9593 861.488 14.076 861.082 14.076 860.634C14.076 860.186 13.9547 859.78 13.712 859.416C13.4693 859.043 13.1427 858.749 12.732 858.534C12.312 858.31 11.85 858.198 11.346 858.198C10.842 858.198 10.3847 858.31 9.974 858.534C9.56333 858.749 9.23667 859.043 8.994 859.416C8.75133 859.78 8.63 860.186 8.63 860.634C8.63 861.082 8.756 861.488 9.008 861.852C9.25067 862.216 9.57733 862.51 9.988 862.734C10.3987 862.949 10.8607 863.056 11.374 863.056ZM15.14 852.211C15.14 852.762 15.042 853.266 14.846 853.723C14.6407 854.171 14.3607 854.563 14.006 854.899C13.6513 855.226 13.2453 855.483 12.788 855.669C12.3307 855.847 11.8453 855.935 11.332 855.935C10.6413 855.935 10.0113 855.781 9.442 855.473C8.87267 855.165 8.42 854.731 8.084 854.171C7.73867 853.611 7.566 852.963 7.566 852.225C7.566 851.507 7.72933 850.881 8.056 850.349C8.37333 849.808 8.80267 849.407 9.344 849.145L9.722 850.349C9.37667 850.536 9.11067 850.797 8.924 851.133C8.728 851.469 8.63 851.843 8.63 852.253C8.63 852.701 8.74667 853.112 8.98 853.485C9.21333 853.849 9.53533 854.139 9.946 854.353C10.3473 854.568 10.8093 854.675 11.332 854.675C11.8453 854.675 12.312 854.568 12.732 854.353C13.1427 854.129 13.4693 853.835 13.712 853.471C13.9547 853.098 14.076 852.687 14.076 852.239C14.076 851.95 14.0247 851.675 13.922 851.413C13.8193 851.143 13.684 850.909 13.516 850.713C13.3387 850.508 13.1473 850.368 12.942 850.293L13.306 849.089C13.6607 849.239 13.978 849.467 14.258 849.775C14.5287 850.074 14.7433 850.433 14.902 850.853C15.0607 851.264 15.14 851.717 15.14 852.211ZM12.074 847.764H7.692L7.692 846.531H11.836C12.5827 846.531 13.1427 846.401 13.516 846.139C13.8893 845.878 14.076 845.491 14.076 844.977C14.076 844.641 14.006 844.319 13.866 844.011C13.7167 843.694 13.5067 843.409 13.236 843.157C12.9653 842.905 12.6433 842.709 12.27 842.569H7.692V841.337H13.6C13.7493 841.337 13.8613 841.309 13.936 841.253C14.0013 841.188 14.0387 841.085 14.048 840.945H15C15.0187 841.085 15.028 841.197 15.028 841.281C15.0373 841.356 15.042 841.431 15.042 841.505C15.042 841.739 14.972 841.939 14.832 842.107C14.6827 842.275 14.5007 842.364 14.286 842.373L13.432 842.401C13.9733 842.719 14.3933 843.148 14.692 843.689C14.9907 844.221 15.14 844.805 15.14 845.439C15.14 846.205 14.8833 846.783 14.37 847.175C13.8473 847.567 13.082 847.764 12.074 847.764ZM15 828.267V829.499H10.912C10.1467 829.499 9.582 829.625 9.218 829.877C8.854 830.12 8.672 830.484 8.672 830.969C8.672 831.464 8.854 831.912 9.218 832.313C9.57267 832.715 10.0347 832.999 10.604 833.167H15V834.399H10.912C10.1373 834.399 9.57267 834.521 9.218 834.763C8.854 835.006 8.672 835.37 8.672 835.855C8.672 836.341 8.84933 836.789 9.204 837.199C9.54933 837.601 10.0113 837.885 10.59 838.053H15V839.285H7.692V838.165H9.26C8.71867 837.867 8.30333 837.479 8.014 837.003C7.71533 836.527 7.566 835.991 7.566 835.393C7.566 834.787 7.734 834.301 8.07 833.937C8.39667 833.573 8.82133 833.349 9.344 833.265C8.76533 832.939 8.32667 832.542 8.028 832.075C7.72 831.609 7.566 831.077 7.566 830.479C7.566 830.059 7.64533 829.709 7.804 829.429C7.95333 829.14 8.168 828.911 8.448 828.743C8.71867 828.575 9.04067 828.454 9.414 828.379C9.78733 828.305 10.1933 828.267 10.632 828.267H15ZM15.14 823.118C15.14 823.668 15.042 824.172 14.846 824.63C14.6407 825.078 14.3653 825.47 14.02 825.806C13.6653 826.132 13.2593 826.389 12.802 826.576C12.3447 826.753 11.8593 826.842 11.346 826.842C10.6553 826.842 10.0253 826.683 9.456 826.366C8.88667 826.048 8.42933 825.61 8.084 825.05C7.73867 824.48 7.566 823.832 7.566 823.104C7.566 822.366 7.74333 821.727 8.098 821.186C8.44333 820.635 8.90067 820.21 9.47 819.912C10.03 819.604 10.6367 819.45 11.29 819.45C11.3833 819.45 11.4767 819.454 11.57 819.464C11.654 819.464 11.7193 819.468 11.766 819.478L11.766 825.54C12.242 825.502 12.6667 825.372 13.04 825.148C13.404 824.914 13.6933 824.616 13.908 824.252C14.1133 823.888 14.216 823.496 14.216 823.076C14.216 822.628 14.104 822.208 13.88 821.816C13.656 821.414 13.362 821.139 12.998 820.99L13.292 819.926C13.6467 820.084 13.964 820.322 14.244 820.64C14.524 820.948 14.7433 821.316 14.902 821.746C15.0607 822.166 15.14 822.623 15.14 823.118ZM10.912 825.582L10.912 820.598C10.436 820.635 10.016 820.77 9.652 821.004C9.288 821.237 9.00333 821.536 8.798 821.9C8.59267 822.264 8.49 822.665 8.49 823.104C8.49 823.533 8.59267 823.93 8.798 824.294C9.00333 824.658 9.288 824.956 9.652 825.19C10.016 825.414 10.436 825.544 10.912 825.582ZM15 811.738V812.97H10.912C10.1373 812.97 9.57267 813.092 9.218 813.334C8.854 813.568 8.672 813.927 8.672 814.412C8.672 814.748 8.756 815.084 8.924 815.42C9.092 815.747 9.32067 816.041 9.61 816.302C9.89 816.554 10.2167 816.736 10.59 816.848H15V818.08H7.692V816.96H9.26C8.91467 816.764 8.616 816.512 8.364 816.204C8.112 815.896 7.916 815.546 7.776 815.154C7.636 814.762 7.566 814.352 7.566 813.922C7.566 813.502 7.64533 813.152 7.804 812.872C7.95333 812.583 8.168 812.359 8.448 812.2C8.71867 812.032 9.04067 811.916 9.414 811.85C9.78733 811.776 10.1933 811.738 10.632 811.738H15ZM14.636 806.111C14.6827 806.213 14.7433 806.353 14.818 806.531C14.8927 806.708 14.958 806.913 15.014 807.147C15.07 807.38 15.098 807.627 15.098 807.889C15.098 808.187 15.0467 808.463 14.944 808.715C14.832 808.967 14.664 809.167 14.44 809.317C14.2067 809.466 13.9173 809.541 13.572 809.541H8.658V810.535H7.692V809.541H5.256V808.309H7.692V806.671H8.658V808.309H13.194C13.4553 808.29 13.6513 808.201 13.782 808.043C13.9033 807.884 13.964 807.697 13.964 807.483C13.964 807.24 13.922 807.016 13.838 806.811C13.754 806.605 13.6933 806.47 13.656 806.405L14.636 806.111ZM15.14 802.463C15.14 803.07 15.042 803.639 14.846 804.171C14.6407 804.703 14.3373 805.16 13.936 805.543L13.068 805.067C13.46 804.647 13.74 804.227 13.908 803.807C14.076 803.387 14.16 802.958 14.16 802.519C14.16 802.015 14.0667 801.604 13.88 801.287C13.684 800.97 13.3993 800.811 13.026 800.811C12.7553 800.811 12.5547 800.895 12.424 801.063C12.2933 801.222 12.186 801.45 12.102 801.749C12.0087 802.048 11.906 802.402 11.794 802.813C11.6447 803.317 11.486 803.742 11.318 804.087C11.15 804.432 10.94 804.694 10.688 804.871C10.436 805.048 10.1187 805.137 9.736 805.137C9.26933 805.137 8.87733 805.016 8.56 804.773C8.23333 804.53 7.986 804.199 7.818 803.779C7.65 803.35 7.566 802.864 7.566 802.323C7.566 801.782 7.65 801.292 7.818 800.853C7.986 800.414 8.23333 800.036 8.56 799.719L9.414 800.279C9.11533 800.568 8.896 800.886 8.756 801.231C8.60667 801.576 8.532 801.964 8.532 802.393C8.532 802.645 8.56467 802.892 8.63 803.135C8.686 803.378 8.79333 803.578 8.952 803.737C9.10133 803.896 9.316 803.975 9.596 803.975C9.82933 803.975 10.016 803.914 10.156 803.793C10.2867 803.662 10.3987 803.476 10.492 803.233C10.5853 802.981 10.688 802.678 10.8 802.323C10.9587 801.772 11.1173 801.296 11.276 800.895C11.4347 800.484 11.64 800.167 11.892 799.943C12.144 799.719 12.494 799.607 12.942 799.607C13.6327 799.607 14.174 799.868 14.566 800.391C14.9487 800.914 15.14 801.604 15.14 802.463Z" fill="#575555" fill-opacity="0.5"/>
<line x1="11" y1="957" x2="11" y2="934" stroke="#9B9B9B" stroke-width="2"/>
<line x1="11" y1="793" x2="11" y2="770" stroke="#9B9B9B" stroke-width="2"/>
<path d="M15.07 79.778C15.07 80.478 14.93 81.1127 14.65 81.682C14.37 82.2513 13.992 82.746 13.516 83.166C13.0307 83.5767 12.4893 83.894 11.892 84.118C11.2853 84.342 10.6647 84.454 10.03 84.454C9.36733 84.454 8.73733 84.3373 8.14 84.104C7.53333 83.8613 6.99667 83.53 6.53 83.11C6.054 82.6807 5.68067 82.1813 5.41 81.612C5.13 81.0427 4.99 80.422 4.99 79.75C4.99 79.05 5.13467 78.4153 5.424 77.846C5.71333 77.2767 6.10067 76.7867 6.586 76.376C7.07133 75.9653 7.61267 75.648 8.21 75.424C8.80733 75.2 9.41867 75.088 10.044 75.088C10.7067 75.088 11.3413 75.2047 11.948 75.438C12.5453 75.6713 13.082 76.0027 13.558 76.432C14.0247 76.852 14.3933 77.3467 14.664 77.916C14.9347 78.4853 15.07 79.106 15.07 79.778ZM10.03 83.18C10.534 83.18 11.024 83.1007 11.5 82.942C11.9667 82.774 12.382 82.5407 12.746 82.242C13.11 81.9433 13.3993 81.584 13.614 81.164C13.8287 80.744 13.936 80.2773 13.936 79.764C13.936 79.232 13.824 78.756 13.6 78.336C13.376 77.916 13.0773 77.5613 12.704 77.272C12.3307 76.9733 11.9107 76.7493 11.444 76.6C10.9773 76.4413 10.506 76.362 10.03 76.362C9.526 76.362 9.04067 76.446 8.574 76.614C8.10733 76.7727 7.692 77.006 7.328 77.314C6.95467 77.6127 6.66533 77.972 6.46 78.392C6.24533 78.8027 6.138 79.26 6.138 79.764C6.138 80.296 6.25 80.772 6.474 81.192C6.68867 81.612 6.98267 81.9713 7.356 82.27C7.72933 82.5593 8.14933 82.7833 8.616 82.942C9.07333 83.1007 9.54467 83.18 10.03 83.18ZM15.14 69.7813C15.14 70.3507 15 70.8687 14.72 71.3353C14.44 71.802 14.076 72.1707 13.628 72.4413H15V73.5333H4.78V72.3013H9.148C8.672 71.9933 8.28933 71.6153 8 71.1673C7.71067 70.7193 7.566 70.1967 7.566 69.5993C7.566 69.0953 7.67333 68.6427 7.888 68.2413C8.09333 67.84 8.378 67.4993 8.742 67.2193C9.09667 66.93 9.50267 66.7107 9.96 66.5613C10.408 66.4027 10.8793 66.3233 11.374 66.3233C11.8873 66.3233 12.3727 66.412 12.83 66.5893C13.278 66.7573 13.6793 67 14.034 67.3173C14.3793 67.6347 14.65 68.0033 14.846 68.4233C15.042 68.834 15.14 69.2867 15.14 69.7813ZM14.076 70.0893C14.076 69.7253 14.0013 69.3893 13.852 69.0813C13.7027 68.7733 13.502 68.5073 13.25 68.2833C12.998 68.0593 12.7087 67.8867 12.382 67.7653C12.0553 67.644 11.7193 67.5833 11.374 67.5833C10.898 67.5833 10.45 67.686 10.03 67.8913C9.61 68.0873 9.274 68.3673 9.022 68.7313C8.76067 69.086 8.63 69.5013 8.63 69.9773C8.63 70.3227 8.70933 70.6447 8.868 70.9433C9.02667 71.242 9.23667 71.508 9.498 71.7413C9.75 71.9653 10.03 72.152 10.338 72.3013H12.452C12.6853 72.2547 12.9 72.1567 13.096 72.0073C13.292 71.858 13.4647 71.676 13.614 71.4613C13.754 71.2467 13.866 71.0227 13.95 70.7893C14.034 70.5467 14.076 70.3133 14.076 70.0893ZM15 64.8107H7.692V63.5787H15V64.8107ZM6.32 64.8107H4.78V63.5787H6.32V64.8107ZM14.636 57.8041C14.6827 57.9068 14.7433 58.0468 14.818 58.2241C14.8927 58.4015 14.958 58.6068 15.014 58.8401C15.07 59.0735 15.098 59.3208 15.098 59.5821C15.098 59.8808 15.0467 60.1561 14.944 60.4081C14.832 60.6601 14.664 60.8608 14.44 61.0101C14.2067 61.1595 13.9173 61.2341 13.572 61.2341H8.658V62.2281H7.692V61.2341H5.256V60.0021H7.692V58.3641H8.658V60.0021H13.194C13.4553 59.9835 13.6513 59.8948 13.782 59.7361C13.9033 59.5775 13.964 59.3908 13.964 59.1761C13.964 58.9335 13.922 58.7095 13.838 58.5041C13.754 58.2988 13.6933 58.1635 13.656 58.0981L14.636 57.8041ZM12.074 56.7323H7.692V55.5002H11.836C12.5827 55.5002 13.1427 55.3696 13.516 55.1082C13.8893 54.8469 14.076 54.4596 14.076 53.9462C14.076 53.6102 14.006 53.2882 13.866 52.9802C13.7167 52.6629 13.5067 52.3782 13.236 52.1262C12.9653 51.8742 12.6433 51.6782 12.27 51.5382H7.692V50.3062H13.6C13.7493 50.3062 13.8613 50.2782 13.936 50.2222C14.0013 50.1569 14.0387 50.0542 14.048 49.9142H15C15.0187 50.0542 15.028 50.1662 15.028 50.2502C15.0373 50.3249 15.042 50.3996 15.042 50.4742C15.042 50.7076 14.972 50.9082 14.832 51.0762C14.6827 51.2442 14.5007 51.3329 14.286 51.3422L13.432 51.3702C13.9733 51.6876 14.3933 52.1169 14.692 52.6582C14.9907 53.1902 15.14 53.7736 15.14 54.4082C15.14 55.1736 14.8833 55.7522 14.37 56.1442C13.8473 56.5362 13.082 56.7323 12.074 56.7323ZM12.886 48.828C12.4193 48.828 12.018 48.6974 11.682 48.436C11.3367 48.1654 11.0707 47.7967 10.884 47.33C10.6973 46.8634 10.604 46.322 10.604 45.706C10.604 45.3794 10.632 45.034 10.688 44.67C10.7347 44.306 10.8093 43.984 10.912 43.704H10.38C9.82 43.704 9.38133 43.872 9.064 44.208C8.73733 44.544 8.574 45.02 8.574 45.636C8.574 46.0374 8.64867 46.4247 8.798 46.798C8.938 47.162 9.14333 47.5494 9.414 47.96L8.546 48.408C8.21933 47.932 7.97667 47.456 7.818 46.98C7.65 46.504 7.566 46.0094 7.566 45.496C7.566 44.5627 7.82733 43.8254 8.35 43.284C8.86333 42.7427 9.582 42.472 10.506 42.472H13.6C13.7493 42.472 13.8613 42.444 13.936 42.388C14.0013 42.3227 14.0387 42.22 14.048 42.08H15C15.0187 42.2014 15.0327 42.3087 15.042 42.402C15.0513 42.486 15.056 42.556 15.056 42.612C15.056 42.9014 14.9767 43.1207 14.818 43.27C14.6593 43.41 14.4913 43.4894 14.314 43.508L13.852 43.536C14.2627 43.8534 14.58 44.2687 14.804 44.782C15.028 45.2954 15.14 45.804 15.14 46.308C15.14 46.7934 15.042 47.2274 14.846 47.61C14.6407 47.9927 14.37 48.2914 14.034 48.506C13.6887 48.7207 13.306 48.828 12.886 48.828ZM13.404 44.068C13.2733 43.956 13.1427 43.8674 13.012 43.802C12.872 43.7367 12.7553 43.704 12.662 43.704H11.752C11.64 43.9934 11.556 44.2967 11.5 44.614C11.4347 44.9314 11.402 45.244 11.402 45.552C11.402 46.1774 11.528 46.686 11.78 47.078C12.0227 47.4607 12.3587 47.652 12.788 47.652C13.0213 47.652 13.25 47.5914 13.474 47.47C13.6887 47.3394 13.866 47.1527 14.006 46.91C14.146 46.658 14.216 46.35 14.216 45.986C14.216 45.6034 14.1413 45.2394 13.992 44.894C13.8333 44.5487 13.6373 44.2734 13.404 44.068ZM8.77 36.6381C8.77933 37.2541 8.938 37.8001 9.246 38.2761C9.54467 38.7428 9.96 39.0741 10.492 39.2701H15V40.5021H7.692V39.3541H9.386C8.882 39.1021 8.476 38.7708 8.168 38.3601C7.85067 37.9401 7.67333 37.5014 7.636 37.0441C7.636 36.9508 7.636 36.8714 7.636 36.8061C7.636 36.7408 7.64067 36.6848 7.65 36.6381H8.77ZM16.988 35.0802C16.9973 34.9588 17.0067 34.8375 17.016 34.7162C17.0347 34.5948 17.044 34.5015 17.044 34.4362C17.044 34.2868 16.9927 34.1562 16.89 34.0442C16.7873 33.9322 16.5867 33.8108 16.288 33.6802C15.9987 33.5402 15.5693 33.3628 15 33.1482L7.692 36.2422V34.9402L13.754 32.4762L7.692 30.2502V29.0322L16.918 32.5882C17.1327 32.6722 17.3333 32.7982 17.52 32.9662C17.716 33.1248 17.87 33.3302 17.982 33.5822C18.094 33.8342 18.15 34.1375 18.15 34.4922C18.15 34.5762 18.1453 34.6648 18.136 34.7582C18.1267 34.8422 18.108 34.9495 18.08 35.0802H16.988Z" fill="#575555" fill-opacity="0.5"/>
<line x1="11" y1="23" x2="11" stroke="#9B9B9B" stroke-width="2"/>
<line x1="9" y1="115" x2="9" y2="92" stroke="#9B9B9B" stroke-width="2"/>
<path d="M5.06 235.786V234.722L15 230.662V232.006L12.088 233.182V237.354L15 238.516V239.86L5.06 235.786ZM11.108 233.462L6.516 235.254L11.108 237.102V233.462ZM15 229.372H8.658V230.366H7.692V229.372H7.636C7.20667 229.372 6.80533 229.278 6.432 229.092C6.05867 228.896 5.75533 228.62 5.522 228.266C5.28867 227.911 5.172 227.491 5.172 227.006C5.172 226.651 5.214 226.348 5.298 226.096C5.37267 225.834 5.47067 225.582 5.592 225.34L6.544 225.676C6.41333 225.881 6.32933 226.068 6.292 226.236C6.25467 226.404 6.236 226.581 6.236 226.768C6.236 226.992 6.278 227.192 6.362 227.37C6.43667 227.538 6.53933 227.682 6.67 227.804C6.80067 227.916 6.95 228 7.118 228.056C7.27667 228.112 7.43533 228.14 7.594 228.14H7.692V226.194H8.658V228.14H15V229.372ZM8.658 226.012V227.006H7.692V226.012H7.538C7.174 226.012 6.824 225.956 6.488 225.844C6.14267 225.732 5.83 225.564 5.55 225.34C5.27 225.116 5.05067 224.836 4.892 224.5C4.724 224.164 4.64 223.767 4.64 223.31C4.64 222.964 4.67733 222.647 4.752 222.358C4.82667 222.068 4.92 221.812 5.032 221.588C5.144 221.354 5.256 221.163 5.368 221.014L6.278 221.546C6.11933 221.723 5.984 221.966 5.872 222.274C5.76 222.572 5.704 222.894 5.704 223.24C5.704 223.594 5.79267 223.888 5.97 224.122C6.14733 224.346 6.376 224.514 6.656 224.626C6.92667 224.728 7.20667 224.78 7.496 224.78H7.692V221.042H15V222.274H8.658V224.78H15L15 226.012H8.658ZM11.36 219.535C10.6693 219.535 10.0393 219.395 9.47 219.115C8.89133 218.825 8.42933 218.433 8.084 217.939C7.73867 217.435 7.566 216.861 7.566 216.217C7.566 215.629 7.72 215.101 8.028 214.635C8.336 214.168 8.70933 213.804 9.148 213.543H4.78V212.311H13.6C13.7493 212.311 13.8613 212.283 13.936 212.227C14.0013 212.161 14.0387 212.059 14.048 211.919H15C15.0373 212.152 15.056 212.334 15.056 212.465C15.056 212.707 14.972 212.922 14.804 213.109C14.636 213.286 14.4493 213.375 14.244 213.375H13.628C14.0947 213.664 14.4633 214.051 14.734 214.537C15.0047 215.022 15.14 215.526 15.14 216.049C15.14 216.553 15.042 217.019 14.846 217.449C14.6407 217.869 14.3607 218.237 14.006 218.555C13.6513 218.863 13.25 219.105 12.802 219.283C12.3447 219.451 11.864 219.535 11.36 219.535ZM12.438 213.543H10.338C10.0207 213.655 9.736 213.837 9.484 214.089C9.22267 214.341 9.01733 214.625 8.868 214.943C8.70933 215.251 8.63 215.559 8.63 215.867C8.63 216.231 8.70933 216.562 8.868 216.861C9.01733 217.15 9.22267 217.402 9.484 217.617C9.736 217.822 10.0253 217.981 10.352 218.093C10.6787 218.205 11.0193 218.261 11.374 218.261C11.738 218.261 12.0833 218.2 12.41 218.079C12.7367 217.948 13.026 217.771 13.278 217.547C13.53 217.313 13.726 217.047 13.866 216.749C14.006 216.441 14.076 216.109 14.076 215.755C14.076 215.531 14.034 215.302 13.95 215.069C13.866 214.826 13.7493 214.597 13.6 214.383C13.4507 214.168 13.278 213.986 13.082 213.837C12.8767 213.687 12.662 213.589 12.438 213.543ZM12.886 210.828C12.4193 210.828 12.018 210.697 11.682 210.436C11.3367 210.165 11.0707 209.797 10.884 209.33C10.6973 208.863 10.604 208.322 10.604 207.706C10.604 207.379 10.632 207.034 10.688 206.67C10.7347 206.306 10.8093 205.984 10.912 205.704H10.38C9.82 205.704 9.38133 205.872 9.064 206.208C8.73733 206.544 8.574 207.02 8.574 207.636C8.574 208.037 8.64867 208.425 8.798 208.798C8.938 209.162 9.14333 209.549 9.414 209.96L8.546 210.408C8.21933 209.932 7.97667 209.456 7.818 208.98C7.65 208.504 7.566 208.009 7.566 207.496C7.566 206.563 7.82733 205.825 8.35 205.284C8.86333 204.743 9.582 204.472 10.506 204.472H13.6C13.7493 204.472 13.8613 204.444 13.936 204.388C14.0013 204.323 14.0387 204.22 14.048 204.08H15C15.0187 204.201 15.0327 204.309 15.042 204.402C15.0513 204.486 15.056 204.556 15.056 204.612C15.056 204.901 14.9767 205.121 14.818 205.27C14.6593 205.41 14.4913 205.489 14.314 205.508L13.852 205.536C14.2627 205.853 14.58 206.269 14.804 206.782C15.028 207.295 15.14 207.804 15.14 208.308C15.14 208.793 15.042 209.227 14.846 209.61C14.6407 209.993 14.37 210.291 14.034 210.506C13.6887 210.721 13.306 210.828 12.886 210.828ZM13.404 206.068C13.2733 205.956 13.1427 205.867 13.012 205.802C12.872 205.737 12.7553 205.704 12.662 205.704H11.752C11.64 205.993 11.556 206.297 11.5 206.614C11.4347 206.931 11.402 207.244 11.402 207.552C11.402 208.177 11.528 208.686 11.78 209.078C12.0227 209.461 12.3587 209.652 12.788 209.652C13.0213 209.652 13.25 209.591 13.474 209.47C13.6887 209.339 13.866 209.153 14.006 208.91C14.146 208.658 14.216 208.35 14.216 207.986C14.216 207.603 14.1413 207.239 13.992 206.894C13.8333 206.549 13.6373 206.273 13.404 206.068ZM15 200.635L7.692 203.505V202.217L13.824 199.921L7.692 197.625V196.421L15 199.291V200.635ZM15 195.188H7.692V193.956H15V195.188ZM6.32 195.188H4.78V193.956H6.32V195.188ZM14.636 188.181C14.6827 188.284 14.7433 188.424 14.818 188.601C14.8927 188.778 14.958 188.984 15.014 189.217C15.07 189.45 15.098 189.698 15.098 189.959C15.098 190.258 15.0467 190.533 14.944 190.785C14.832 191.037 14.664 191.238 14.44 191.387C14.2067 191.536 13.9173 191.611 13.572 191.611H8.658V192.605H7.692V191.611H5.256V190.379H7.692L7.692 188.741H8.658V190.379H13.194C13.4553 190.36 13.6513 190.272 13.782 190.113C13.9033 189.954 13.964 189.768 13.964 189.553C13.964 189.31 13.922 189.086 13.838 188.881C13.754 188.676 13.6933 188.54 13.656 188.475L14.636 188.181Z" fill="#575555" fill-opacity="0.5"/>
<line x1="9" y1="270" x2="9" y2="247" stroke="#9B9B9B" stroke-width="2"/>
<line x1="10" y1="180" x2="10" y2="157" stroke="#9B9B9B" stroke-width="2"/>
</svg>
