<svg width="14" height="14" viewBox="0 0 14 14" fill="none" xmlns="http://www.w3.org/2000/svg">
<path d="M5.72211 7.54427C5.98437 7.89489 6.31898 8.18501 6.70323 8.39494C7.08748 8.60487 7.51238 8.72971 7.94912 8.76099C8.38586 8.79227 8.82422 8.72926 9.23446 8.57622C9.64471 8.42319 10.0172 8.18372 10.3268 7.87405L12.1589 6.04194C12.7151 5.46605 13.0229 4.69472 13.0159 3.8941C13.009 3.09348 12.6879 2.32762 12.1217 1.76148C11.5556 1.19533 10.7897 0.874199 9.98908 0.867242C9.18846 0.860285 8.41714 1.16806 7.84124 1.72428L6.79084 2.76858"  stroke-linecap="round" stroke-linejoin="round"/>
<path d="M8.16493 6.32287C7.90266 5.97224 7.56805 5.68213 7.1838 5.4722C6.79955 5.26226 6.37465 5.13742 5.93791 5.10614C5.50117 5.07487 5.06281 5.13788 4.65257 5.29091C4.24232 5.44395 3.86979 5.68342 3.56023 5.99309L1.72813 7.82519C1.17191 8.40109 0.86413 9.17241 0.871087 9.97303C0.878044 10.7737 1.19918 11.5395 1.76532 12.1057C2.33147 12.6718 3.09733 12.9929 3.89795 12.9999C4.69857 13.0069 5.46989 12.6991 6.04579 12.1429L7.09009 11.0986"  stroke-linecap="round" stroke-linejoin="round"/>
</svg>
